<svg width="2096" height="1000" viewBox="0 0 2096 1000" fill="none" xmlns="http://www.w3.org/2000/svg">
<path d="M2054.49 814.1C2072.15 831.772 2078.03 858.036 2069.61 881.553C2068.79 883.867 2067.82 886.132 2066.73 888.335C2058.5 904.95 2043.53 917.234 2025.63 922.066C2023.06 922.768 2020.44 923.301 2017.79 923.664C2014.85 924.07 2011.88 924.273 2008.91 924.271H1200.88C1185.85 924.287 1171.28 919.03 1159.72 909.415C1158.18 908.141 1156.69 906.791 1155.27 905.367C1154.48 904.573 1153.7 903.76 1152.94 902.917C1151.96 901.849 1151.05 900.751 1150.17 899.615C1147.4 896.115 1145.02 892.335 1143.04 888.335C1142.78 887.806 1142.52 887.276 1142.28 886.737C1141.5 885.039 1140.79 883.311 1140.16 881.553C1132.62 860.655 1136.37 837.343 1150.1 819.872C1150.98 818.735 1151.91 817.638 1152.87 816.569C1165.1 802.948 1182.54 795.175 1200.84 795.196H1284.99C1286.05 795.196 1287.09 795.156 1288.13 795.078C1290.8 794.887 1293.44 794.441 1296.02 793.745C1298.27 793.143 1300.47 792.35 1302.59 791.374C1307.19 789.264 1311.37 786.354 1314.96 782.779C1322.93 774.856 1327.41 764.08 1327.41 752.84C1327.41 751.235 1327.32 749.632 1327.14 748.038C1325.16 730.764 1312.85 716.444 1296.06 711.905C1293.48 711.211 1290.84 710.765 1288.17 710.573C1287.13 710.494 1286.08 710.455 1285.03 710.455H1271.82C1264.46 710.462 1257.12 709.64 1249.95 708.005H1249.88L1249.38 707.887C1248.83 707.77 1248.3 707.633 1247.76 707.495L1246.95 707.29C1246.25 707.103 1245.54 706.917 1244.85 706.711C1244.15 706.506 1243.67 706.368 1243.09 706.182C1238.69 704.844 1234.4 703.19 1230.23 701.233C1229.31 700.802 1228.39 700.361 1227.49 699.891C1226 699.136 1224.55 698.352 1223.1 697.519C1220.39 695.971 1217.78 694.291 1215.26 692.482C1213.14 690.982 1211.1 689.395 1209.11 687.739C1206.83 685.85 1204.65 683.858 1202.56 681.761C1185.43 664.715 1175.24 641.924 1173.94 617.796C1173.9 617.071 1173.87 616.346 1173.86 615.62C1173.86 614.552 1173.8 613.474 1173.8 612.406C1173.8 611.936 1173.8 611.426 1173.8 611.005C1173.85 607.071 1174.14 603.144 1174.66 599.245C1178.29 572.294 1192.98 548.072 1215.19 532.389C1217.6 530.677 1220.08 529.08 1222.63 527.597C1222.78 527.509 1222.92 527.42 1223.08 527.342C1227.47 524.809 1232.06 522.626 1236.8 520.815C1238.86 520.021 1240.95 519.306 1243.06 518.649C1245.18 517.993 1247.56 517.366 1249.85 516.846C1257.05 515.2 1264.41 514.371 1271.79 514.377H1343.97C1352.93 514.371 1361.67 511.588 1368.98 506.409C1370.96 505.001 1372.81 503.431 1374.53 501.715C1382.03 494.232 1386.5 484.251 1387.11 473.677C1387.16 472.844 1387.19 472.001 1387.19 471.149C1387.19 458.03 1381.23 445.622 1370.99 437.417C1370.34 436.888 1369.67 436.437 1368.98 435.908C1366.52 434.147 1363.88 432.659 1361.09 431.469C1360.42 431.165 1359.73 430.89 1359.04 430.636C1354.22 428.838 1349.12 427.922 1343.97 427.931H1212.11C1199.93 427.961 1187.84 425.817 1176.41 421.6C1172.38 420.108 1168.46 418.357 1164.65 416.357C1162.97 415.475 1161.31 414.551 1159.68 413.584C1157.36 412.205 1155.1 410.735 1152.9 409.174C1151.92 408.507 1151.04 407.831 1150.13 407.135C1147.4 405.055 1144.78 402.834 1142.29 400.481C1141.41 399.668 1140.54 398.835 1139.69 397.982C1125.76 384.09 1116.14 366.474 1111.97 347.247C1111.85 346.731 1111.74 346.212 1111.64 345.689C1111.29 343.964 1110.99 342.23 1110.73 340.466C1110.01 335.501 1109.64 330.49 1109.65 325.472C1109.65 325.08 1109.65 324.688 1109.65 324.296C1109.88 300.946 1118.11 278.382 1132.97 260.37C1133.89 259.253 1134.84 258.146 1135.81 257.068C1137.05 255.676 1138.33 254.324 1139.64 253.011C1140.5 252.158 1141.36 251.325 1142.24 250.512L1142.5 250.276C1143.23 249.59 1143.97 248.924 1144.72 248.267C1146.47 246.732 1148.27 245.262 1150.13 243.857C1151.04 243.162 1151.96 242.485 1152.9 241.819C1153.84 241.153 1154.61 240.633 1155.47 240.055C1156.85 239.134 1158.25 238.242 1159.68 237.399L1160.38 236.988C1161.78 236.164 1163.21 235.371 1164.65 234.626C1168.45 232.625 1172.38 230.877 1176.41 229.393C1187.84 225.142 1199.93 222.975 1212.11 222.993C1213.15 222.992 1214.18 222.937 1215.21 222.827C1217.91 222.534 1220.55 221.851 1223.05 220.798C1229.87 217.977 1235.33 212.629 1238.3 205.873C1239.46 203.222 1240.21 200.41 1240.51 197.533C1240.62 196.631 1240.67 195.725 1240.67 194.818C1240.67 194.691 1240.67 194.563 1240.67 194.436V174.042C1240.67 169.321 1241.35 164.623 1242.69 160.097C1242.82 159.675 1242.95 159.254 1243.08 158.842C1249.15 140.23 1265.72 127.028 1285.22 125.287C1286.2 125.199 1287.18 125.14 1288.16 125.111H1289.62H1576.76C1577.85 125.111 1578.92 125.111 1579.99 125.219C1582.64 125.382 1585.28 125.769 1587.88 126.375C1596.42 128.367 1604.27 132.622 1610.6 138.694C1610.87 138.939 1611.12 139.193 1611.38 139.448C1620.17 148.22 1625.28 160.013 1625.67 172.425V174.062C1625.67 174.062 1625.67 175.042 1625.67 175.453C1625.74 177.753 1625.97 180.046 1626.36 182.313C1626.44 182.794 1626.54 183.293 1626.62 183.754C1626.81 184.665 1627.03 185.577 1627.25 186.469C1628.01 189.335 1629.02 192.127 1630.28 194.808C1630.71 195.73 1631.17 196.641 1631.65 197.523C1631.88 197.944 1632.11 198.356 1632.36 198.768C1633.83 201.28 1635.52 203.655 1637.41 205.863C1638.81 207.498 1640.32 209.037 1641.92 210.469C1642.64 211.116 1643.37 211.733 1644.12 212.341C1646.85 214.506 1649.81 216.372 1652.94 217.907C1653.56 218.221 1654.18 218.515 1654.82 218.799C1661.06 221.569 1667.82 222.995 1674.65 222.983H1817.88C1820.69 222.983 1823.47 223.13 1826.21 223.405C1836.12 224.413 1845.75 227.24 1854.63 231.745C1860.82 234.892 1866.59 238.814 1871.79 243.416C1872.26 243.838 1872.72 244.249 1873.18 244.681C1873.64 245.112 1873.96 245.396 1874.33 245.768C1875.18 246.582 1876.01 247.405 1876.79 248.258C1877.1 248.561 1877.39 248.875 1877.67 249.238C1877.71 249.262 1877.74 249.296 1877.77 249.336C1878.07 249.659 1878.37 249.982 1878.64 250.316C1878.92 250.649 1879.35 251.1 1879.68 251.501C1880.17 252.06 1880.66 252.628 1881.11 253.207C1881.46 253.628 1881.81 254.059 1882.09 254.5C1882.38 254.941 1882.75 255.343 1883.07 255.774C1883.39 256.205 1883.74 256.656 1884.05 257.107C1884.2 257.29 1884.33 257.476 1884.46 257.666C1885.1 258.567 1885.72 259.479 1886.32 260.41C1886.71 261.027 1887.1 261.644 1887.48 262.272C1888.15 263.369 1888.78 264.486 1889.44 265.613C1890.32 267.247 1891.15 268.913 1891.93 270.611C1892.63 272.121 1893.28 273.656 1893.89 275.217C1894.94 277.941 1895.84 280.722 1896.59 283.547C1897 285.066 1897.36 286.605 1897.67 288.153C1898.24 290.909 1898.65 293.693 1898.92 296.493C1899.18 299.147 1899.31 301.813 1899.31 304.48V371.424C1899.3 385.589 1904.93 399.175 1914.95 409.189C1924.97 419.204 1938.55 424.825 1952.72 424.814H2034.19C2042.23 424.818 2050.13 426.84 2057.19 430.694C2060.62 432.566 2063.81 434.842 2066.69 437.476C2067.23 437.966 2067.76 438.456 2068.27 438.985C2069.47 440.184 2070.6 441.443 2071.67 442.758C2085.97 460.442 2085.97 485.707 2071.67 503.391C2070.6 504.706 2069.47 505.965 2068.27 507.164C2060.78 514.685 2051 519.51 2040.47 520.884C2038.39 521.16 2036.29 521.297 2034.19 521.295C2031.31 521.296 2028.44 521.705 2025.67 522.511C2022.9 523.328 2020.25 524.546 2017.83 526.127C2017.08 526.607 2016.35 527.107 2015.65 527.665C2008.27 533.399 2003.97 542.218 2003.97 551.558V648.313C2004 662.699 1999.01 676.644 1989.86 687.748C1988.57 689.326 1987.21 690.838 1985.77 692.276C1982.93 695.115 1979.82 697.668 1976.48 699.9C1975.81 700.371 1975.12 700.812 1974.43 701.243C1973.45 701.851 1972.47 702.429 1971.42 702.978L1969.99 703.732C1969.87 703.802 1969.74 703.864 1969.62 703.918C1969.13 704.163 1968.64 704.399 1968.16 704.624C1968.11 704.662 1968.05 704.689 1967.99 704.702C1967.45 704.957 1966.91 705.202 1966.37 705.428C1965.83 705.653 1965.21 705.918 1964.64 706.143C1962.83 706.868 1960.99 707.5 1959.12 708.034C1957.03 708.642 1954.91 709.14 1952.77 709.524C1950.16 709.983 1947.53 710.277 1944.88 710.406C1943.9 710.455 1942.83 710.484 1941.8 710.484C1920.24 710.475 1902.11 726.647 1899.66 748.067C1899.48 749.661 1899.39 751.265 1899.39 752.869C1899.39 764.113 1903.85 774.897 1911.8 782.846C1919.75 790.796 1930.54 795.26 1941.78 795.254H2008.93C2011.9 795.251 2014.87 795.458 2017.81 795.872C2020.46 796.231 2023.08 796.761 2025.65 797.459C2026.52 797.695 2027.39 797.949 2028.25 798.214C2038.15 801.32 2047.15 806.77 2054.49 814.1V814.1Z" fill="#F3F4FE"/>
<path d="M1150.1 243.857V407.086C1147.37 405.006 1144.76 402.785 1142.26 400.432V250.492L1142.51 250.257C1143.25 249.571 1143.98 248.904 1144.74 248.248C1146.49 246.726 1148.28 245.262 1150.1 243.857Z" fill="#EFF1FD"/>
<path d="M1142.26 832.749C1144.36 828.164 1146.99 823.841 1150.1 819.872V899.615C1147.34 896.115 1144.95 892.334 1142.98 888.335C1142.71 887.806 1142.46 887.276 1142.21 886.737L1142.26 832.749Z" fill="#EFF1FD"/>
<path d="M1223.1 220.798V427.941H1215.26V222.827C1217.96 222.534 1220.6 221.851 1223.1 220.798V220.798Z" fill="#EFF1FD"/>
<path d="M1222.62 527.607C1222.77 527.518 1222.91 527.43 1223.07 527.352V697.47C1220.36 695.922 1217.75 694.243 1215.23 692.433V532.399C1217.62 530.681 1220.08 529.083 1222.62 527.607Z" fill="#EFF1FD"/>
<path d="M1215.21 795.196H1223.1V924.271H1215.21V795.196Z" fill="#EFF1FD"/>
<path d="M1296.06 125.091V427.911H1288.17V125.091H1289.63H1296.06Z" fill="#EFF1FD"/>
<path d="M1288.17 514.386H1296.06V711.876C1293.48 711.182 1290.84 710.735 1288.17 710.543V514.386Z" fill="#EFF1FD"/>
<path d="M1288.17 795.078C1290.84 794.887 1293.48 794.441 1296.06 793.745V924.271H1288.17V795.078Z" fill="#EFF1FD"/>
<path d="M1369.01 125.091V435.918C1366.55 434.157 1363.91 432.668 1361.12 431.478V125.091L1369.01 125.091Z" fill="#EFF1FD"/>
<path d="M1361.12 510.849C1363.9 509.654 1366.55 508.169 1369.01 506.419V924.271H1361.12V510.849Z" fill="#EFF1FD"/>
<path d="M1434.08 125.091H1441.97V924.271H1434.08V125.091Z" fill="#EFF1FD"/>
<path d="M1507.05 125.091H1514.93V924.271H1507.05V125.091Z" fill="#EFF1FD"/>
<path d="M1587.89 126.355V924.271H1580V125.199C1582.65 125.363 1585.29 125.75 1587.89 126.355Z" fill="#EFF1FD"/>
<path d="M1660.85 221.014V924.271H1653.01V217.917C1653.62 218.23 1654.25 218.524 1654.89 218.809C1656.82 219.674 1658.81 220.41 1660.85 221.014Z" fill="#EFF1FD"/>
<path d="M1725.92 222.993H1733.81V924.271H1725.92V222.993Z" fill="#EFF1FD"/>
<path d="M1798.87 222.993H1806.76V924.271H1798.87V222.993Z" fill="#EFF1FD"/>
<path d="M1879.72 251.462V924.271H1871.88V243.426C1872.35 243.848 1872.81 244.259 1873.27 244.69C1873.73 245.122 1874.05 245.406 1874.42 245.778C1875.27 246.592 1876.09 247.415 1876.88 248.267C1877.19 248.571 1877.48 248.885 1877.76 249.247C1877.8 249.272 1877.83 249.306 1877.86 249.345C1878.16 249.669 1878.46 249.992 1878.73 250.325C1879 250.659 1879.39 251.08 1879.72 251.462V251.462Z" fill="#EFF1FD"/>
<path d="M1952.72 424.814V709.465C1950.11 709.924 1947.48 710.219 1944.83 710.347V424.187C1947.44 424.59 1950.08 424.8 1952.72 424.814V424.814Z" fill="#EFF1FD"/>
<path d="M1944.79 795.196H1952.68V924.271H1944.79V795.196Z" fill="#EFF1FD"/>
<path d="M2025.63 424.814V522.452C2022.86 523.269 2020.22 524.488 2017.79 526.068V424.814L2025.63 424.814Z" fill="#EFF1FD"/>
<path d="M2025.63 797.401V922.066C2023.06 922.768 2020.44 923.301 2017.79 923.664V795.813C2020.44 796.172 2023.06 796.702 2025.63 797.401V797.401Z" fill="#EFF1FD"/>
<rect x="1255" y="942" width="17" height="17" rx="8.5" transform="rotate(-180 1255 942)" fill="#041844"/>
<rect x="2056.21" y="941.921" width="793.741" height="17.2578" rx="8.6289" transform="rotate(-180 2056.21 941.921)" fill="#041844"/>
<path d="M1314.01 179.903H1359.19C1360.4 179.895 1361.56 180.37 1362.41 181.222C1363.27 182.075 1363.75 183.233 1363.74 184.44V292.671H1314.01V179.903Z" fill="#6675AD"/>
<path d="M1310.82 179.903H1356V292.671H1306.26V184.44C1306.26 183.242 1306.74 182.093 1307.59 181.245C1308.43 180.398 1309.58 179.922 1310.78 179.922L1310.82 179.903Z" fill="#7986BF"/>
<circle cx="1330.43" cy="214.722" r="11.9364" fill="#6675AD"/>
<circle cx="1330.43" cy="214.722" r="5.4194" fill="#F3F4FE"/>
<circle cx="1330.43" cy="270.161" r="19.404" fill="#6675AD"/>
<circle cx="1330.43" cy="270.161" r="8.8004" fill="#F3F4FE"/>
<path d="M1411.41 179.903H1456.59C1459.08 179.903 1461.1 181.925 1461.1 184.42V292.671H1411.41V179.903Z" fill="#6675AD"/>
<path d="M1408.17 179.903H1453.35V292.671H1403.66V184.44C1403.65 183.238 1404.12 182.084 1404.97 181.233C1405.82 180.381 1406.97 179.903 1408.17 179.903V179.903Z" fill="#7986BF"/>
<circle cx="1427.82" cy="214.722" r="11.9364" fill="#6675AD"/>
<circle cx="1427.82" cy="214.722" r="5.4194" fill="#F3F4FE"/>
<circle cx="1427.82" cy="270.161" r="19.404" fill="#6675AD"/>
<circle cx="1427.82" cy="270.161" r="8.8004" fill="#F3F4FE"/>
<path d="M1236.49 315.28H1530.03L1510.7 292.671H1255.82L1236.49 315.28Z" fill="#D2D6FA"/>
<path d="M1475.05 315.27V345.611L1454.45 360.105V315.27H1475.05Z" fill="#D2D6FA"/>
<path d="M1317.07 315.27V360.105L1296.47 345.611V315.27H1317.07Z" fill="#D2D6FA"/>
<path d="M1296.47 315.27H1317.07V324.649H1296.47V315.27Z" fill="#969ECC"/>
<path d="M1454.45 315.27H1475.05V324.649H1454.45V315.27Z" fill="#969ECC"/>
<path d="M1742.96 310.703H1854.79V436.28H1742.96V310.703Z" fill="#D2D6FA"/>
<path d="M1752.75 321.689H1845.01V425.285H1752.75V321.689Z" fill="#F3F4FE"/>
<path d="M1780.1 355.528L1804.85 401.187L1760.77 404.117L1780.1 355.528Z" fill="#D2D6FA"/>
<path d="M1834.15 333.684L1816.9 364.917L1798.87 340.495L1834.15 333.684Z" fill="#D2D6FA"/>
<path d="M1831.44 379.823L1827.83 401.383L1812.44 390.936L1831.44 379.823Z" fill="#D2D6FA"/>
<circle cx="1621.75" cy="300.727" r="26.1464" fill="#332D52"/>
<path d="M1586.82 399.684C1600.53 389.155 1620.18 391.735 1630.71 405.446V405.446C1641.24 419.158 1638.66 438.808 1624.95 449.336L1545.45 510.377C1531.74 520.906 1512.09 518.326 1501.56 504.614V504.614C1491.04 490.903 1493.62 471.253 1507.33 460.724L1586.82 399.684Z" fill="#FAEEDE"/>
<circle cx="1526.49" cy="483.262" r="33.5944" fill="#F2E6D7"/>
<path d="M1448.54 395.447C1441.89 382.818 1446.73 367.185 1459.36 360.53V360.53C1471.99 353.874 1487.62 358.716 1494.28 371.345L1546.09 469.659C1552.75 482.288 1547.9 497.921 1535.27 504.577V504.577C1522.65 511.232 1507.01 506.39 1500.36 493.761L1448.54 395.447Z" fill="#EF948C"/>
<path d="M1479.7 356.803C1492.67 362.432 1498.63 377.511 1493 390.482V390.482C1487.37 403.453 1472.29 409.405 1459.32 403.776L1438.77 394.857C1425.8 389.228 1419.84 374.149 1425.47 361.178V361.178C1431.1 348.207 1446.18 342.255 1459.15 347.885L1479.7 356.803Z" fill="#EF948C"/>
<path d="M1475.17 354.833C1479.86 356.869 1482.01 362.323 1479.98 367.015V367.015C1477.94 371.707 1472.49 373.86 1467.79 371.824L1420.23 351.181C1415.54 349.145 1413.38 343.691 1415.42 338.999V338.999C1417.46 334.307 1422.91 332.154 1427.6 334.19L1475.17 354.833Z" fill="#EF948C"/>
<path d="M1488.7 359.741C1491.51 363.986 1490.35 369.708 1486.1 372.521V372.521C1481.86 375.335 1476.14 374.174 1473.32 369.928L1457.46 345.99C1454.65 341.745 1455.81 336.023 1460.05 333.21V333.21C1464.3 330.397 1470.02 331.558 1472.83 335.803L1488.7 359.741Z" fill="#EA8681"/>
<circle cx="1473.29" cy="371.11" r="18.2476" fill="#EA8681"/>
<path d="M1586.82 399.684C1600.53 389.155 1620.18 391.735 1630.71 405.446V405.446C1641.24 419.158 1638.66 438.808 1624.95 449.336L1545.45 510.377C1531.74 520.906 1512.09 518.326 1501.56 504.614V504.614C1491.04 490.903 1493.62 471.253 1507.33 460.724L1586.82 399.684Z" fill="#F2E6D7"/>
<circle cx="1526.49" cy="483.262" r="33.5944" fill="#FAEEDE"/>
<path d="M1448.54 395.447C1441.89 382.818 1446.73 367.185 1459.36 360.53V360.53C1471.99 353.874 1487.62 358.716 1494.28 371.345L1546.09 469.659C1552.75 482.288 1547.9 497.921 1535.27 504.577V504.577C1522.65 511.232 1507.01 506.39 1500.36 493.761L1448.54 395.447Z" fill="#EF948C"/>
<path d="M1479.7 356.803C1492.67 362.432 1498.63 377.511 1493 390.482V390.482C1487.37 403.453 1472.29 409.405 1459.32 403.776L1438.77 394.857C1425.8 389.228 1419.84 374.149 1425.47 361.178V361.178C1431.1 348.207 1446.18 342.255 1459.15 347.884L1479.7 356.803Z" fill="#EF948C"/>
<path d="M1425.48 361.154C1426.4 359.045 1427.59 357.068 1429.03 355.274C1425.24 367.716 1431.4 381.019 1443.35 386.173L1445.84 387.261L1455.58 391.485L1462.66 404.94L1504.92 485.133C1508.99 492.842 1516.67 497.982 1525.35 498.805C1534.02 499.629 1542.53 496.025 1547.98 489.22C1544.93 499.244 1536.13 506.436 1525.7 507.43C1515.27 508.425 1505.27 503.025 1500.38 493.757L1451.04 400.109L1438.8 394.797C1432.57 392.105 1427.66 387.047 1425.16 380.736C1422.67 374.426 1422.78 367.381 1425.48 361.154V361.154Z" fill="#EA8681"/>
<path d="M1475.17 354.833C1479.86 356.869 1482.01 362.323 1479.98 367.015V367.015C1477.94 371.707 1472.49 373.86 1467.79 371.824L1420.23 351.181C1415.54 349.145 1413.38 343.691 1415.42 338.999V338.999C1417.46 334.307 1422.91 332.154 1427.6 334.19L1475.17 354.833Z" fill="#EF948C"/>
<path d="M1488.7 359.741C1491.51 363.987 1490.35 369.708 1486.1 372.522V372.522C1481.86 375.335 1476.14 374.174 1473.32 369.928L1457.46 345.99C1454.65 341.745 1455.81 336.023 1460.05 333.21V333.21C1464.3 330.397 1470.02 331.558 1472.83 335.803L1488.7 359.741Z" fill="#EF948C"/>
<circle cx="1473.29" cy="371.11" r="18.2476" fill="#EF948C"/>
<circle cx="1623.51" cy="432.87" r="49.0588" fill="#F2E6D7"/>
<path d="M1661.72 654.914C1632.79 655.571 1608.8 632.649 1608.15 603.716L1604.65 449.503C1603.99 420.571 1626.91 396.584 1655.84 395.928L1699 394.948C1727.93 394.292 1751.92 417.214 1752.58 446.146L1756.08 600.359C1756.73 629.292 1733.81 653.278 1704.88 653.935L1661.72 654.914Z" fill="#FAEEDE"/>
<path d="M1583.85 430.801C1583.24 400.545 1607.28 375.528 1637.54 374.923L1719.98 373.274C1750.24 372.669 1775.26 396.705 1775.86 426.96C1776.86 476.879 1737.2 518.155 1687.28 519.154L1676.03 519.379C1626.12 520.371 1584.85 480.715 1583.85 430.801V430.801Z" fill="#FAEEDE"/>
<path d="M1685.74 518.091H1685.83C1735.73 516.956 1775.27 475.581 1774.13 425.677C1773.45 395.43 1748.37 371.465 1718.13 372.149L1635.7 374.021C1631.93 374.103 1628.19 374.576 1624.52 375.432L1703.64 373.629H1704.92C1734.67 373.642 1758.98 397.408 1759.66 427.157C1760.67 471.498 1729.35 510.019 1685.74 518.091V518.091Z" fill="#FFF7EE"/>
<path d="M1649.26 334.008L1650.32 380.695C1650.63 395.24 1662.52 406.866 1677.07 406.841H1677.67C1684.77 406.679 1691.51 403.703 1696.41 398.567C1701.31 393.431 1703.97 386.557 1703.8 379.46L1703.45 363.466L1702.74 332.783C1702.42 318.246 1690.54 306.633 1676 306.636H1675.38C1660.61 306.989 1648.92 319.24 1649.26 334.008V334.008Z" fill="#EF948C"/>
<path d="M1521.38 658.106C1498.88 658.616 1480.22 640.786 1479.71 618.281L1479.65 615.806C1479.14 593.3 1496.97 574.642 1519.48 574.131L1714.62 569.703C1737.12 569.192 1755.78 587.022 1756.29 609.528L1756.35 612.003C1756.86 634.508 1739.03 653.166 1716.52 653.677L1521.38 658.106Z" fill="#332D52"/>
<path d="M1672.57 614.748V865.54H1756.57V614.748C1756.57 591.551 1737.77 572.745 1714.57 572.745C1691.37 572.745 1672.57 591.551 1672.57 614.748Z" fill="#666DA2"/>
<path d="M1672.57 614.748V865.54H1694.41V652.88C1694.41 638.047 1702.24 624.315 1715 616.75C1727.76 609.185 1743.56 608.909 1756.57 616.022V614.709C1756.57 591.511 1737.77 572.706 1714.57 572.706C1691.37 572.706 1672.57 591.511 1672.57 614.709V614.748Z" fill="#555A8B"/>
<path d="M1672.57 829.398V865.52H1756.57V842.588L1672.57 829.398Z" fill="#141334"/>
<path d="M1394.82 837.385L1469.7 867.402L1478.15 845.479L1560.62 631.839C1568.97 610.19 1558.19 585.869 1536.54 577.518C1514.89 569.167 1490.57 579.947 1482.22 601.597L1404.95 801.889L1394.85 828.026L1394.82 837.385Z" fill="#332D52"/>
<path d="M1445.44 901.201L1386.67 878.51L1399.1 846.311L1457.87 869.002L1445.44 901.201Z" fill="#EA8681"/>
<path d="M1746.08 904.319H1683.07V872.057H1746.08V904.319Z" fill="#EF948C"/>
<path d="M1649.26 334.008L1650.32 380.695C1650.37 383.147 1650.76 385.581 1651.48 387.927H1653.44C1672.99 387.938 1691.45 378.89 1703.42 363.427L1702.71 332.743C1702.39 318.207 1690.51 306.593 1675.97 306.597H1675.38C1668.28 306.766 1661.54 309.75 1656.64 314.891C1651.74 320.032 1649.09 326.909 1649.26 334.008V334.008Z" fill="#EA8681"/>
<path d="M1602.86 312.134C1602.86 345.72 1629.1 373.453 1662.64 375.305C1663.77 375.364 1664.89 375.393 1666.04 375.393C1688.83 375.677 1710 363.683 1721.48 343.995C1732.96 324.308 1732.96 299.97 1721.48 280.282C1710 260.595 1688.83 248.601 1666.04 248.885C1664.89 248.885 1663.77 248.885 1662.64 248.973C1629.11 250.82 1602.86 278.55 1602.86 312.134V312.134Z" fill="#EF948C"/>
<path d="M1640.01 329.206C1640.02 332.951 1641.51 336.541 1644.17 339.182C1644.49 339.505 1644.83 339.809 1645.15 340.093C1647.68 342.177 1650.86 343.31 1654.13 343.298H1654.71C1662.06 343.276 1668.16 337.625 1668.75 330.303C1668.75 329.911 1668.75 329.519 1668.75 329.127C1668.75 328.392 1668.46 327.686 1667.94 327.167C1667.42 326.653 1666.71 326.368 1665.98 326.373L1642.64 326.432C1641.16 326.491 1639.99 327.721 1640.01 329.206V329.206Z" fill="#962F4A"/>
<path d="M1654.45 341.122C1654.45 341.853 1654.52 342.581 1654.66 343.298H1654.74C1662.09 343.276 1668.19 337.625 1668.77 330.303C1667.76 330.006 1666.71 329.857 1665.65 329.862C1662.67 329.87 1659.82 331.061 1657.72 333.172C1655.62 335.284 1654.44 338.144 1654.45 341.122V341.122Z" fill="#E1617F"/>
<path d="M1643.26 326.462C1643.37 329.235 1647.66 331.44 1652.91 331.43C1658.16 331.42 1662.42 329.186 1662.52 326.413L1643.26 326.462Z" fill="white"/>
<path d="M1602.86 312.134C1602.86 345.72 1629.1 373.453 1662.64 375.305C1664.38 375.217 1666.12 375.05 1667.83 374.805C1636.52 370.505 1613.18 343.746 1613.18 312.134C1613.18 280.522 1636.52 253.763 1667.83 249.463C1666.12 249.228 1664.38 249.061 1662.64 248.973C1629.11 250.82 1602.86 278.55 1602.86 312.134Z" fill="#EA8681"/>
<path d="M1718.3 424.648V425.304C1718.92 446.198 1732.86 462.77 1749.87 463.015H1750.97C1768.67 462.554 1782.72 444.61 1782.33 422.952C1782.13 410.957 1779.58 401.255 1772.53 394.248C1768.31 390.358 1763.29 387.432 1757.83 385.673C1753.36 384.351 1748.63 384.229 1744.11 385.32C1729.17 388.927 1717.99 405.303 1718.3 424.648V424.648Z" fill="#FAEEDE"/>
<path d="M1717.04 423.834V424.501C1717.58 439.583 1725.01 452.48 1735.55 458.801C1730.05 451.421 1726.97 442.521 1726.73 433.321C1726.73 433.095 1726.73 432.88 1726.73 432.654C1726.31 412.996 1737.75 396.394 1753.19 392.827C1755.06 392.382 1756.97 392.139 1758.9 392.102C1761.77 392.045 1764.64 392.432 1767.39 393.249C1769.8 393.965 1772.1 394.986 1774.25 396.287C1770.14 390.674 1764.34 386.52 1757.7 384.429C1753.08 383.05 1748.19 382.905 1743.5 384.007C1728.05 387.604 1716.61 404.185 1717.04 423.834V423.834Z" fill="#F2E6D7"/>
<path d="M1730.18 439.657C1722.89 423.98 1729.7 405.365 1745.37 398.078V398.078C1761.05 390.791 1779.66 397.593 1786.95 413.269L1829.2 504.155C1836.48 519.831 1829.68 538.447 1814.01 545.733V545.733C1798.33 553.02 1779.71 546.219 1772.43 530.543L1730.18 439.657Z" fill="#FAEEDE"/>
<circle cx="1798.59" cy="516.797" r="33.5944" fill="#F2E6D7"/>
<path d="M1730.18 439.657C1722.89 423.98 1729.7 405.365 1745.37 398.078V398.078C1761.05 390.791 1779.66 397.593 1786.95 413.269L1829.2 504.155C1836.48 519.831 1829.68 538.447 1814.01 545.733V545.733C1798.33 553.02 1779.71 546.219 1772.43 530.543L1730.18 439.657Z" fill="#FAEEDE"/>
<path d="M1729 416.259C1735.12 406.586 1746.04 401.032 1757.47 401.775C1768.9 402.518 1779 409.441 1783.83 419.826L1826.06 510.711C1829.49 518.059 1829.93 526.451 1827.28 534.114C1830.46 529.098 1832.16 523.285 1832.18 517.346C1832.18 512.796 1831.17 508.303 1829.24 504.185L1787 413.299C1781.64 401.719 1769.77 394.559 1757.03 395.206C1744.28 395.852 1733.2 404.176 1729.03 416.239L1729 416.259Z" fill="#FFF7EE"/>
<circle cx="1798.59" cy="516.797" r="33.5944" fill="#F2E6D7"/>
<rect x="1741.81" y="297.63" width="154.997" height="60.6032" rx="30.3016" transform="rotate(-180 1741.81 297.63)" fill="#332D52"/>
<circle cx="1724.13" cy="300.727" r="26.1464" fill="#332D52"/>
<circle cx="1728.8" cy="305.401" r="21.4718" fill="#49466B"/>
<circle cx="1729.31" cy="312.144" r="20.9622" fill="#EF948C"/>
<path d="M1727.66 318.7V305.597C1727.66 304.935 1727.98 304.313 1728.52 303.925C1729.06 303.537 1729.75 303.43 1730.38 303.637C1734.08 304.823 1736.59 308.263 1736.59 312.149C1736.59 316.034 1734.08 319.474 1730.38 320.66C1729.75 320.863 1729.06 320.754 1728.52 320.367C1727.99 319.98 1727.67 319.361 1727.66 318.7V318.7Z" fill="#EA8681"/>
<circle cx="1621.75" cy="258.116" r="40.0526" fill="#332D52"/>
<path d="M1585.35 258.116C1585.34 267.705 1589.44 276.838 1596.6 283.207C1603.77 289.576 1613.32 292.572 1622.84 291.436C1605.98 289.429 1593.29 275.133 1593.29 258.156C1593.29 241.178 1605.98 226.883 1622.84 224.875C1613.32 223.74 1603.77 226.735 1596.6 233.104C1589.44 239.474 1585.34 248.607 1585.35 258.195V258.116Z" fill="#49466B"/>
<circle cx="1653.47" cy="233.891" r="27.5576" fill="#332D52"/>
<path d="M1622.84 307.185C1622.99 311.185 1626.27 314.353 1630.28 314.353C1634.28 314.353 1637.56 311.185 1637.71 307.185C1637.71 306.604 1637.64 306.025 1637.5 305.46C1636.71 308.809 1633.72 311.173 1630.28 311.173C1626.83 311.173 1623.84 308.809 1623.05 305.46C1622.91 306.025 1622.84 306.604 1622.84 307.185V307.185Z" fill="#332D52"/>
<path d="M1663.68 307.185C1663.68 311.293 1667.01 314.623 1671.12 314.623C1675.22 314.623 1678.56 311.293 1678.56 307.185C1678.56 306.604 1678.49 306.025 1678.35 305.46C1677.55 308.804 1674.56 311.161 1671.12 311.161C1667.68 311.161 1664.69 308.804 1663.88 305.46C1663.75 306.025 1663.68 306.604 1663.68 307.185V307.185Z" fill="#332D52"/>
<path d="M1672.58 920.351H1752.62C1752.63 900.868 1738.6 884.211 1719.4 880.897C1717.15 880.518 1714.88 880.328 1712.6 880.328C1701.98 880.326 1691.8 884.541 1684.3 892.048C1676.79 899.554 1672.57 909.736 1672.58 920.351V920.351Z" fill="#332D52"/>
<path d="M1672.58 920.351H1691.06C1691.07 902.485 1702.47 886.615 1719.4 880.906C1717.15 880.528 1714.88 880.338 1712.6 880.338C1701.99 880.335 1691.81 884.55 1684.3 892.054C1676.79 899.558 1672.58 909.738 1672.58 920.351V920.351Z" fill="#49466B"/>
<path d="M1661.49 913.109C1661.5 913.892 1661.58 914.673 1661.73 915.442C1661.8 915.815 1661.9 916.185 1662.01 916.549C1662.12 916.909 1662.25 917.262 1662.4 917.607C1662.83 918.638 1663.42 919.6 1664.13 920.459C1664.36 920.743 1664.61 921.008 1664.87 921.273C1665.13 921.533 1665.41 921.779 1665.7 922.008C1667.76 923.718 1670.36 924.651 1673.04 924.644H1758.45C1763.18 924.654 1767.05 920.89 1767.16 916.167C1767.28 911.444 1763.6 907.492 1758.89 907.268L1694.85 902.996L1673.6 901.575C1671.68 901.476 1669.78 901.861 1668.05 902.692C1667.55 902.937 1667.06 903.215 1666.6 903.525C1666.15 903.827 1665.71 904.154 1665.3 904.505C1664.88 904.877 1664.5 905.28 1664.15 905.71C1663.91 905.995 1663.69 906.293 1663.48 906.602C1662.74 907.691 1662.2 908.902 1661.88 910.179C1661.78 910.547 1661.7 910.92 1661.64 911.296C1661.54 911.896 1661.5 912.502 1661.49 913.109V913.109Z" fill="#332D52"/>
<path d="M1661.49 913.109C1661.5 913.892 1661.58 914.673 1661.73 915.442C1661.8 915.817 1661.89 916.186 1662.01 916.549C1662.12 916.91 1662.25 917.264 1662.4 917.607C1662.83 918.638 1663.42 919.6 1664.13 920.459C1664.36 920.743 1664.61 921.008 1664.87 921.273C1665.13 921.533 1665.41 921.779 1665.7 922.008C1667.76 923.718 1670.36 924.651 1673.04 924.644H1700.43C1695.16 924.657 1690.54 921.093 1689.23 915.986C1687.91 910.88 1690.23 905.531 1694.85 902.996L1673.6 901.575C1671.68 901.476 1669.78 901.861 1668.05 902.692C1667.05 903.175 1666.12 903.799 1665.3 904.544C1664.88 904.917 1664.5 905.319 1664.15 905.749C1663.91 906.032 1663.69 906.33 1663.48 906.641C1662.74 907.73 1662.2 908.941 1661.88 910.218C1661.78 910.586 1661.7 910.959 1661.64 911.335C1661.55 911.922 1661.5 912.515 1661.49 913.109V913.109Z" fill="#49466B"/>
<path d="M1448.73 911.293L1384.42 884.257L1394.61 860.009L1448.47 882.651C1451.24 883.816 1453.44 886.035 1454.58 888.819C1455.71 891.604 1455.7 894.725 1454.53 897.497L1448.73 911.293Z" fill="#49466B"/>
<path d="M1335.82 872.459L1409.61 903.476C1415.15 890.294 1413.24 875.157 1404.6 863.768C1395.95 852.378 1381.89 846.467 1367.7 848.259C1353.51 850.052 1341.36 859.277 1335.82 872.459V872.459Z" fill="#332D52"/>
<path d="M1335.82 872.459L1356.56 881.22C1363.44 864.833 1380.31 854.95 1397.97 856.955C1388.19 849.006 1375.23 846.128 1363.01 849.187C1350.78 852.247 1340.71 860.888 1335.82 872.508V872.459Z" fill="#49466B"/>
<path d="M1453.62 907.778L1347.61 857.043C1344.76 855.681 1341.48 855.546 1338.53 856.668C1335.58 857.79 1333.21 860.072 1331.99 862.982C1330.8 865.805 1330.78 868.984 1331.94 871.82C1333.09 874.656 1335.33 876.916 1338.15 878.104L1446.49 923.644C1448.62 924.539 1451.01 924.553 1453.15 923.682C1455.28 922.81 1456.99 921.126 1457.88 918.999C1459.68 914.72 1457.8 909.783 1453.62 907.778V907.778Z" fill="#332D52"/>
<path d="M1331.99 862.992C1329.52 868.867 1332.28 875.631 1338.15 878.104L1363.4 888.717C1358.38 886.632 1355.5 881.334 1356.47 875.992C1357.44 870.649 1362.01 866.706 1367.43 866.52L1347.62 857.024C1344.77 855.66 1341.48 855.527 1338.52 856.655C1335.57 857.783 1333.21 860.074 1331.99 862.992V862.992Z" fill="#49466B"/>
<path d="M1798.6 564.072L1805.21 582.928L1816.84 616.14L1924.98 924.693H1949.09L1866.21 616.14L1857.29 582.928L1852.22 564.072H1798.6Z" fill="#441242"/>
<path d="M1805.21 582.928L1816.84 616.14H1866.21L1857.29 582.928H1805.21Z" fill="#2F073A"/>
<path d="M1453.17 564.072L1446.56 582.928L1434.93 616.14L1326.79 924.693H1302.68L1385.56 616.14L1394.48 582.928L1399.55 564.072H1453.17Z" fill="#441242"/>
<path d="M1446.56 582.928L1434.93 616.14H1385.56L1394.48 582.928H1446.56Z" fill="#2F073A"/>
<path d="M1919.9 597.285L1345.45 597.285C1337.53 597.29 1331.1 590.88 1331.08 582.957V564.121L1934.28 564.121V582.957C1934.25 590.88 1927.82 597.29 1919.9 597.285Z" fill="#441242"/>
<rect x="2006.71" y="572.941" width="748.063" height="26.3424" rx="13.1712" transform="rotate(-180 2006.71 572.941)" fill="#D8BA9F"/>
<path d="M1258.64 559.78C1258.65 567.052 1264.54 572.946 1271.82 572.951H1993.54C2000.81 572.951 2006.71 567.054 2006.71 559.78C2006.71 558.225 2006.44 556.681 2005.89 555.223C2003.99 560.397 1999.05 563.832 1993.54 563.827H1271.82C1268.32 563.836 1264.97 562.446 1262.51 559.966C1261.15 558.632 1260.11 557.011 1259.47 555.223C1258.92 556.681 1258.64 558.224 1258.64 559.78Z" fill="#C89F87"/>
<circle cx="1912.42" cy="584.77" r="4.8706" fill="#D8BA9F"/>
<circle cx="1911.36" cy="585.093" r="5.9388" fill="#2F073A"/>
<circle cx="1912.42" cy="584.77" r="4.8706" fill="#D8BA9F"/>
<path d="M1907.55 584.77C1907.55 587.476 1909.75 589.67 1912.45 589.67H1912.96C1910.56 589.311 1908.79 587.25 1908.79 584.824C1908.79 582.398 1910.56 580.337 1912.96 579.978C1912.79 579.968 1912.62 579.968 1912.45 579.978C1909.79 579.977 1907.61 582.106 1907.55 584.77V584.77Z" fill="#C89F87"/>
<path d="M1912.42 587.436C1912.67 587.514 1912.93 587.554 1913.19 587.553C1914.72 587.553 1915.97 586.307 1915.97 584.77C1915.97 583.233 1914.72 581.987 1913.19 581.987C1912.93 581.986 1912.67 582.026 1912.42 582.104C1913.62 582.433 1914.46 583.525 1914.46 584.77C1914.46 586.015 1913.62 587.107 1912.42 587.436H1912.42Z" fill="#F5EAE4"/>
<circle cx="1885.18" cy="584.77" r="4.8706" fill="#D8BA9F"/>
<circle cx="1884.12" cy="585.093" r="5.9388" fill="#2F073A"/>
<circle cx="1885.18" cy="584.77" r="4.8706" fill="#D8BA9F"/>
<path d="M1880.32 584.77C1880.32 587.476 1882.51 589.67 1885.22 589.67H1885.73C1883.33 589.311 1881.55 587.25 1881.55 584.824C1881.55 582.398 1883.33 580.337 1885.73 579.978C1885.56 579.968 1885.39 579.968 1885.22 579.978C1882.55 579.977 1880.38 582.106 1880.32 584.77V584.77Z" fill="#C89F87"/>
<path d="M1885.18 587.436C1885.43 587.514 1885.68 587.554 1885.94 587.553C1887.48 587.553 1888.73 586.307 1888.73 584.77C1888.73 583.233 1887.48 581.987 1885.94 581.987C1885.68 581.986 1885.43 582.026 1885.18 582.104C1886.38 582.433 1887.21 583.525 1887.21 584.77C1887.21 586.015 1886.38 587.107 1885.18 587.436V587.436Z" fill="#F5EAE4"/>
<circle cx="1355.56" cy="584.77" r="4.8706" fill="#D8BA9F"/>
<circle cx="1356.62" cy="585.093" r="5.9388" fill="#2F073A"/>
<circle cx="1355.56" cy="584.77" r="4.8706" fill="#D8BA9F"/>
<path d="M1360.43 584.77C1360.43 587.476 1358.23 589.67 1355.53 589.67H1355.02C1357.42 589.311 1359.19 587.25 1359.19 584.824C1359.19 582.398 1357.42 580.337 1355.02 579.978C1355.19 579.968 1355.36 579.968 1355.53 579.978C1358.19 579.977 1360.37 582.106 1360.43 584.77Z" fill="#C89F87"/>
<path d="M1355.56 587.436C1355.31 587.514 1355.05 587.554 1354.79 587.553C1353.8 587.553 1352.88 587.023 1352.38 586.162C1351.88 585.301 1351.88 584.24 1352.38 583.378C1352.88 582.517 1353.8 581.987 1354.79 581.987C1355.05 581.986 1355.31 582.026 1355.56 582.104C1354.37 582.446 1353.55 583.533 1353.55 584.77C1353.55 586.007 1354.37 587.094 1355.56 587.436V587.436Z" fill="#F5EAE4"/>
<circle cx="1382.8" cy="584.77" r="4.8706" fill="#D8BA9F"/>
<circle cx="1383.86" cy="585.093" r="5.9388" fill="#2F073A"/>
<circle cx="1382.8" cy="584.77" r="4.8706" fill="#D8BA9F"/>
<path d="M1387.66 584.77C1387.66 587.476 1385.47 589.67 1382.76 589.67H1382.25C1384.65 589.311 1386.43 587.25 1386.43 584.824C1386.43 582.398 1384.65 580.337 1382.25 579.978C1382.42 579.968 1382.59 579.968 1382.76 579.978C1385.43 579.977 1387.6 582.106 1387.66 584.77V584.77Z" fill="#C89F87"/>
<path d="M1382.8 587.436C1382.55 587.514 1382.3 587.554 1382.04 587.553C1380.5 587.553 1379.25 586.307 1379.25 584.77C1379.25 583.233 1380.5 581.987 1382.04 581.987C1382.3 581.986 1382.55 582.026 1382.8 582.104C1381.6 582.433 1380.77 583.525 1380.77 584.77C1380.77 586.015 1381.6 587.107 1382.8 587.436V587.436Z" fill="#F5EAE4"/>
<path d="M1677.41 496.698C1682.51 496.232 1687.01 499.983 1687.48 505.076V505.076C1687.95 510.17 1684.19 514.677 1679.1 515.143L1650.38 517.772C1645.29 518.238 1640.78 514.487 1640.31 509.394V509.394C1639.85 504.3 1643.6 499.793 1648.69 499.327L1677.41 496.698Z" fill="#EA8681"/>
<circle cx="1681.03" cy="513.74" r="18.2476" fill="#EA8681"/>
<path d="M1690.76 547.121C1676.48 546.979 1665.03 535.292 1665.17 521.017V521.017C1665.31 506.743 1677 495.286 1691.27 495.428L1802.4 496.534C1816.67 496.676 1828.13 508.363 1827.99 522.637V522.637C1827.85 536.912 1816.16 548.368 1801.88 548.226L1690.76 547.121Z" fill="#EF948C"/>
<path d="M1671.4 501.293C1682.52 492.552 1698.61 494.477 1707.35 505.592V505.592C1716.09 516.707 1714.17 532.803 1703.05 541.544L1685.44 555.392C1674.33 564.132 1658.23 562.207 1649.49 551.092V551.092C1640.75 539.977 1642.68 523.881 1653.79 515.141L1671.4 501.293Z" fill="#EF948C"/>
<path d="M1667.51 504.346C1671.53 501.184 1677.35 501.88 1680.51 505.901V505.901C1683.68 509.921 1682.98 515.744 1678.96 518.905L1638.2 550.957C1634.18 554.118 1628.36 553.422 1625.19 549.401V549.401C1622.03 545.381 1622.73 539.558 1626.75 536.397L1667.51 504.346Z" fill="#EF948C"/>
<path d="M1677.41 496.698C1682.51 496.232 1687.01 499.983 1687.48 505.076V505.076C1687.95 510.17 1684.19 514.677 1679.1 515.143L1650.38 517.772C1645.29 518.238 1640.78 514.487 1640.31 509.394V509.394C1639.85 504.3 1643.6 499.793 1648.69 499.327L1677.41 496.698Z" fill="#EF948C"/>
<circle cx="1681.03" cy="513.74" r="18.2476" fill="#EF948C"/>
<path d="M1690.76 547.121C1676.48 546.979 1665.03 535.292 1665.17 521.017V521.017C1665.31 506.743 1677 495.286 1691.27 495.428L1802.4 496.534C1816.67 496.676 1828.13 508.363 1827.99 522.637V522.637C1827.85 536.912 1816.16 548.368 1801.88 548.226L1690.76 547.121Z" fill="#EF948C"/>
<path d="M1671.4 501.293C1682.52 492.552 1698.61 494.477 1707.35 505.592V505.592C1716.09 516.707 1714.17 532.803 1703.05 541.544L1685.44 555.392C1674.33 564.132 1658.23 562.207 1649.49 551.092V551.092C1640.75 539.977 1642.68 523.881 1653.79 515.141L1671.4 501.293Z" fill="#EF948C"/>
<path d="M1647.01 544.619C1655.75 555.736 1671.85 557.662 1682.97 548.922L1685.91 546.599L1693.43 540.719L1704.04 540.817L1799.27 541.797C1813.55 541.938 1825.23 530.484 1825.38 516.209V515.945C1825.38 513.85 1825.12 511.763 1824.61 509.731C1826.81 513.598 1827.95 517.968 1827.95 522.413V522.677C1827.81 536.951 1816.12 548.411 1801.85 548.275L1696.01 547.226L1685.52 555.468C1678.69 560.838 1669.59 562.373 1661.37 559.546C1653.15 556.718 1646.92 549.913 1644.83 541.474C1645.48 542.575 1646.21 543.626 1647.01 544.619V544.619Z" fill="#F3A6A0"/>
<path d="M1667.51 504.346C1671.53 501.184 1677.35 501.88 1680.51 505.901V505.901C1683.68 509.921 1682.98 515.744 1678.96 518.905L1638.2 550.957C1634.18 554.118 1628.36 553.422 1625.2 549.401V549.401C1622.03 545.381 1622.73 539.558 1626.75 536.397L1667.51 504.346Z" fill="#EF948C"/>
<path d="M1680.09 520.97C1683.6 518.21 1688.69 518.818 1691.45 522.328V522.328C1694.21 525.838 1693.6 530.921 1690.09 533.681L1678.26 542.986C1674.75 545.746 1669.66 545.138 1666.9 541.628V541.628C1664.14 538.118 1664.75 533.035 1668.26 530.275L1680.09 520.97Z" fill="#F3A6A0"/>
<circle cx="1617.86" cy="307.802" r="27.0382" stroke="white" stroke-width="2.85"/>
<circle cx="1681.66" cy="307.802" r="27.0382" stroke="white" stroke-width="2.85"/>
<path d="M1644.88 308.861H1654.64" stroke="white" stroke-width="2.85"/>
<path d="M1394.82 837.385L1469.7 867.402L1478.15 845.479L1404.95 801.889L1394.85 828.035L1394.82 837.385Z" fill="#141334"/>
<path d="M1504.16 538.436H1488.84V535.496C1488.84 532.714 1491.09 530.458 1493.87 530.458H1499.14C1501.92 530.458 1504.17 532.714 1504.17 535.496V538.436L1504.16 538.436Z" fill="#ABB2D8"/>
<path d="M1519.49 538.436H1504.16V535.496C1504.16 532.714 1506.42 530.458 1509.2 530.458H1514.46C1517.25 530.458 1519.5 532.714 1519.5 535.496V538.436L1519.49 538.436Z" fill="#ABB2D8"/>
<path d="M1534.83 538.436H1519.5V535.496C1519.5 532.714 1521.76 530.458 1524.54 530.458H1529.8C1532.58 530.458 1534.84 532.714 1534.84 535.496V538.436L1534.83 538.436Z" fill="#ABB2D8"/>
<path d="M1550.16 538.436H1534.83V535.496C1534.83 532.714 1537.08 530.458 1539.87 530.458H1545.13C1547.91 530.458 1550.17 532.714 1550.17 535.496V538.436L1550.16 538.436Z" fill="#ABB2D8"/>
<path d="M1565.48 538.436H1550.16V535.496C1550.16 532.714 1552.41 530.458 1555.19 530.458H1560.46C1563.24 530.458 1565.49 532.714 1565.49 535.496V538.436L1565.48 538.436Z" fill="#ABB2D8"/>
<path d="M1580.82 538.436H1565.49V535.496C1565.49 532.714 1567.75 530.458 1570.53 530.458H1575.78C1578.56 530.458 1580.82 532.714 1580.82 535.496V538.436V538.436Z" fill="#ABB2D8"/>
<path d="M1596.14 538.436H1580.81V535.496C1580.81 532.714 1583.07 530.458 1585.85 530.458H1591.11C1593.89 530.458 1596.15 532.714 1596.15 535.496V538.436L1596.14 538.436Z" fill="#ABB2D8"/>
<rect x="1616.52" y="546.599" width="174.969" height="12.495" rx="6.2475" transform="rotate(-180 1616.52 546.599)" fill="#5D6295"/>
<path d="M1489.75 546.599H1343.73C1337.61 546.599 1332.27 542.439 1330.78 536.505L1302.36 423.452C1301.36 419.46 1302.25 415.229 1304.78 411.984C1307.32 408.738 1311.2 406.841 1315.32 406.841H1444.17C1450.29 406.841 1455.62 411.001 1457.11 416.935L1489.75 546.599Z" fill="#666DA2"/>
<path d="M1302.35 423.462L1330.77 536.505C1332.27 542.441 1337.61 546.602 1343.73 546.609H1489.75L1486.6 534.114H1371.26C1365.13 534.111 1359.8 529.948 1358.3 524.01L1329.88 410.967C1329.54 409.619 1329.41 408.228 1329.5 406.841H1315.31C1311.19 406.844 1307.31 408.744 1304.78 411.991C1302.24 415.237 1301.35 419.469 1302.35 423.462V423.462Z" fill="#5D6295"/>
<circle cx="1386.91" cy="480.459" r="7.3108" fill="#ABB2D8"/>
<path d="M1377.13 491.396C1380.3 496.302 1386.14 498.784 1391.88 497.668C1397.62 496.552 1402.1 492.06 1403.2 486.321C1404.31 480.582 1401.82 474.747 1396.9 471.58C1400.5 477.245 1399.69 484.648 1394.94 489.394C1390.2 494.139 1382.79 494.955 1377.13 491.356V491.396Z" fill="#ABB2D8"/>
<path d="M1672.57 872.253H1756.57L1765.14 850.664L1657.28 833.729L1672.57 872.253Z" fill="#332D52"/>
<circle cx="1749.6" cy="863.257" r="5.243" fill="#141334"/>
<circle cx="1749.9" cy="864.678" r="3.822" fill="#666DA2"/>
<path d="M1749.86 867.177C1750.03 867.208 1750.2 867.224 1750.37 867.226C1751.72 867.142 1752.77 866.024 1752.77 864.673C1752.77 863.322 1751.72 862.203 1750.37 862.12C1750.2 862.119 1750.03 862.139 1749.86 862.179C1751.03 862.435 1751.87 863.475 1751.87 864.678C1751.87 865.88 1751.03 866.92 1749.86 867.177V867.177Z" fill="#332D52"/>
<path d="M1750.49 861.483C1750.27 861.435 1750.05 861.412 1749.83 861.414C1748.1 861.509 1746.75 862.94 1746.75 864.673C1746.75 866.406 1748.1 867.836 1749.83 867.931C1750.05 867.934 1750.27 867.911 1750.49 867.863C1748.98 867.538 1747.91 866.21 1747.91 864.673C1747.91 863.136 1748.98 861.807 1750.49 861.483V861.483Z" fill="#9DA5D1"/>
<path d="M1388.54 842.49L1466.51 873.743L1482.5 856.896L1388.68 801.046L1388.54 842.49Z" fill="#262344"/>
<circle cx="1463.8" cy="859.64" r="5.243" fill="#141334"/>
<circle cx="1464.1" cy="861.061" r="3.822" fill="#666DA2"/>
<path d="M1464.1 863.58C1464.27 863.619 1464.44 863.639 1464.61 863.639C1465.96 863.555 1467.01 862.437 1467.01 861.086C1467.01 859.735 1465.96 858.617 1464.61 858.533C1464.44 858.518 1464.27 858.518 1464.1 858.533C1465.28 858.789 1466.11 859.83 1466.11 861.032C1466.11 862.235 1465.28 863.275 1464.1 863.531V863.58Z" fill="#332D52"/>
<path d="M1464.68 857.867C1464.46 857.819 1464.24 857.796 1464.02 857.798C1462.29 857.893 1460.94 859.324 1460.94 861.057C1460.94 862.789 1462.29 864.22 1464.02 864.315C1464.24 864.317 1464.46 864.294 1464.68 864.246C1463.18 863.922 1462.11 862.593 1462.11 861.057C1462.11 859.52 1463.18 858.191 1464.68 857.867V857.867Z" fill="#9DA5D1"/>
<rect x="1198" y="942" width="204" height="17" rx="8.5" transform="rotate(-180 1198 942)" fill="#041844"/>
<path d="M962.697 657.966V668.168C962.682 713.603 938.923 755.726 900.046 779.241C896.293 781.517 892.423 783.595 888.452 785.464C887.766 785.797 887.071 786.121 886.375 786.444C881.596 788.614 876.687 790.483 871.675 792.04L870.313 792.452C858.187 796.087 845.594 797.929 832.935 797.92H780.28C765.497 797.925 753.516 809.911 753.516 824.694V924.565H305.96V824.694C305.973 813.672 299.216 803.775 288.947 799.772C288.193 799.478 287.428 799.214 286.644 798.978C285.678 798.701 284.696 798.478 283.704 798.312C282.213 798.047 280.701 797.916 279.186 797.92H190.614C189.213 797.92 187.831 797.92 186.439 797.861C175.794 797.542 165.224 795.96 154.952 793.147C153.844 792.844 152.737 792.53 151.639 792.167C144.765 790.099 138.069 787.477 131.618 784.327C121.638 779.477 112.296 773.411 103.806 766.266C100.846 763.777 98.0008 761.163 95.2698 758.426C61.7562 724.88 48.3132 676.204 59.8615 630.213C71.4098 584.223 106.254 547.671 151.639 533.937C152.737 533.604 153.844 533.291 154.952 532.957C166.572 529.778 178.567 528.172 190.614 528.185H294.543C296.943 528.186 299.337 527.939 301.687 527.45L301.971 527.391C308.547 525.972 314.574 522.685 319.327 517.924C320.287 516.964 321.187 515.947 322.022 514.876V514.827C323.008 513.585 323.905 512.275 324.707 510.907V510.858C331.059 500.023 331.125 486.617 324.88 475.719C318.635 464.822 307.034 458.102 294.474 458.105H119.241C86.1107 458.098 56.2458 438.138 43.5672 407.53C30.8886 376.922 37.892 341.691 61.3128 318.259L61.9204 317.661L62.1752 317.416C77.4511 302.554 97.9274 294.244 119.241 294.259C136.096 294.273 152.353 288.009 164.84 276.687C165.889 275.707 166.898 274.727 167.888 273.747C179.199 262.183 185.989 246.947 187.027 230.804C187.125 229.334 187.174 227.864 187.174 226.355C187.174 173.356 230.138 130.393 283.136 130.393H837.816C873.995 130.39 905.894 154.113 916.304 188.762C918.582 196.411 919.744 204.349 919.754 212.331C919.754 215.173 919.607 217.976 919.332 220.739C918.984 224.125 918.428 227.486 917.666 230.804C909.053 267.956 875.954 294.259 837.816 294.259H771.176C765.35 294.249 759.572 295.315 754.134 297.405C752.15 298.159 750.222 299.05 748.361 300.07C740.835 304.202 734.554 310.277 730.173 317.661C729.585 318.641 729.026 319.69 728.507 320.738C725.256 327.309 723.578 334.546 723.607 341.877V342.161C723.607 343.631 723.695 345.101 723.832 346.512C724.404 352.365 726.066 358.059 728.732 363.3C729.114 364.054 729.516 364.799 729.937 365.524C738.426 380.344 754.195 389.489 771.274 389.495C772.077 389.495 772.861 389.495 773.655 389.544H773.871C782.793 389.901 791.529 392.202 799.468 396.287C812.503 402.993 822.737 414.105 828.349 427.647C828.349 427.754 828.437 427.852 828.476 427.96C830.233 432.251 831.489 436.73 832.22 441.308C832.757 444.596 833.025 447.923 833.024 451.255V493.395C833.021 494.99 833.113 496.583 833.298 498.167C835.2 515.318 847.156 529.676 863.678 534.653L863.943 534.731C871.628 537.032 879.157 539.828 886.483 543.1L888.56 544.08C892.402 545.864 896.283 547.844 900.154 550.039C911.343 556.278 921.574 564.098 930.534 573.255C934.678 577.522 938.48 582.109 941.902 586.975C942.725 588.141 943.519 589.327 944.303 590.532C949.861 599.161 954.192 608.522 957.17 618.345C960.974 631.203 962.837 644.558 962.697 657.966V657.966Z" fill="#F3F4FE"/>
<path d="M633.378 573.245H605.017L596.775 481.292C596.67 480.128 597.06 478.973 597.848 478.11C598.637 477.247 599.752 476.755 600.92 476.754H620.932C623.087 476.756 624.885 478.401 625.077 480.547L633.378 573.245Z" fill="#D2D6FA"/>
<circle cx="614.876" cy="523.157" r="8.6436" fill="#D2D6FA"/>
<path d="M573.392 476.754H591.424C594.277 476.754 596.589 479.067 596.589 481.919V573.245H568.228V481.919C568.228 479.067 570.54 476.754 573.392 476.754V476.754Z" fill="#F9E7D9"/>
<circle cx="582.408" cy="523.157" r="8.6436" fill="#EFD6C5"/>
<path d="M797.478 544.884C800.488 544.884 802.928 547.324 802.928 550.334V567.795C802.928 570.805 800.488 573.245 797.478 573.245H711.897C708.887 573.245 706.447 570.805 706.447 567.795V550.334C706.447 547.324 708.887 544.884 711.897 544.884H797.478Z" fill="#D2D6FA"/>
<circle cx="756.525" cy="559.065" r="8.6436" fill="#969ECC"/>
<path d="M809.591 516.513C812.601 516.513 815.041 518.953 815.041 521.963V539.424C815.041 542.434 812.601 544.874 809.591 544.874H724.01C721 544.874 718.56 542.434 718.56 539.424V521.963C718.56 518.953 721 516.513 724.01 516.513H809.591Z" fill="#D2D6FA"/>
<circle cx="768.648" cy="530.703" r="8.6436" fill="#969ECC"/>
<rect x="641.267" y="644.462" width="50.911" height="39.6508" rx="5.5" fill="#D2D6FA"/>
<circle cx="666.727" cy="664.287" r="10.29" fill="#7986BF"/>
<circle cx="661.583" cy="664.287" r="1.0486" fill="#6675AD"/>
<circle cx="672.402" cy="664.287" r="1.0486" fill="#6675AD"/>
<path d="M941.823 587.014H553.341V573.294H930.455C934.6 577.561 938.401 582.149 941.823 587.014V587.014Z" fill="#D2D6FA"/>
<path d="M741.727 379.303H553.341V365.583H729.839C732.887 370.875 736.923 375.533 741.727 379.303Z" fill="#F9E7D9"/>
<path d="M545.903 267.74C550.011 267.74 553.341 271.07 553.341 275.178V924.565H538.465V275.139C538.487 271.046 541.81 267.74 545.903 267.74V267.74Z" fill="#D2D6FA"/>
<rect x="628.831" y="192.251" width="54.5762" height="22.9516" rx="2.7" fill="#969ECC"/>
<rect x="591.405" y="223.963" width="54.5762" height="22.9516" rx="2.7" fill="#D2D6FA"/>
<rect x="523.206" y="223.963" width="54.5762" height="22.9516" rx="2.7" fill="#D2D6FA"/>
<rect x="664.66" y="223.963" width="54.5762" height="22.9516" rx="2.7" fill="#969ECC"/>
<rect x="560.104" y="256.225" width="54.5762" height="22.9516" rx="2.7" fill="#969ECC"/>
<rect x="235.508" y="635.652" width="54.5762" height="22.9516" rx="2.7" fill="#969ECC"/>
<rect x="198.082" y="667.355" width="54.5762" height="22.9516" rx="2.7" fill="#D2D6FA"/>
<rect x="129.883" y="667.355" width="54.5762" height="22.9516" rx="2.7" fill="#D2D6FA"/>
<rect x="271.327" y="667.355" width="54.5762" height="22.9516" rx="2.7" fill="#F9E7D9"/>
<rect x="166.78" y="699.626" width="54.5762" height="22.9516" rx="2.7" fill="#D2D6FA"/>
<rect x="125.444" y="328.657" width="49.3038" height="20.7368" rx="2.44" fill="#969ECC"/>
<rect x="91.634" y="357.302" width="49.3038" height="20.7368" rx="2.44" fill="#D2D6FA"/>
<rect x="157.813" y="357.302" width="49.3038" height="20.7368" rx="2.44" fill="#969ECC"/>
<rect x="769.902" y="679.585" width="49.3038" height="20.7368" rx="2.44" fill="#969ECC"/>
<rect x="736.092" y="708.24" width="49.3038" height="20.7368" rx="2.44" fill="#D2D6FA"/>
<rect x="802.271" y="708.24" width="49.3038" height="20.7368" rx="2.44" fill="#D2D6FA"/>
<rect x="154.276" y="941.823" width="72.5788" height="17.2578" rx="8.6289" transform="rotate(-180 154.276 941.823)" fill="#041844"/>
<rect x="955.043" y="941.823" width="793.741" height="17.2578" rx="8.6289" transform="rotate(-180 955.043 941.823)" fill="#041844"/>
<path d="M498.094 364.341C509.48 377.781 507.815 397.907 494.375 409.293V409.293C480.935 420.679 460.809 419.013 449.423 405.573L387.078 331.98C375.692 318.54 377.357 298.415 390.797 287.029V287.029C404.237 275.643 424.363 277.308 435.749 290.748L498.094 364.341Z" fill="#DEE4EB"/>
<path d="M625.066 344.943C629.429 344.174 633.589 347.088 634.358 351.451V351.451C635.126 355.814 632.212 359.973 627.849 360.742L603.219 365.08C598.856 365.849 594.696 362.935 593.928 358.572V358.572C593.159 354.209 596.073 350.05 600.436 349.281L625.066 344.943Z" fill="#EF927F"/>
<path d="M627.88 360.752L603.263 365.093C602.8 365.176 602.331 365.215 601.861 365.211C600.418 365.211 599.002 364.818 597.765 364.074C598.089 364.121 598.417 364.144 598.745 364.143C599.212 364.144 599.678 364.101 600.136 364.015L624.764 359.674C629.124 358.902 632.036 354.745 631.271 350.383C630.873 348.086 629.486 346.08 627.478 344.895C631.424 345.381 634.418 348.684 634.514 352.659C634.609 356.633 631.778 360.077 627.861 360.752H627.88Z" fill="#EF927F"/>
<circle cx="479.508" cy="382.194" r="36.0836" fill="#004393"/>
<path d="M565.742 323.676C580.28 318.445 596.305 325.989 601.536 340.526V340.526C606.767 355.064 599.222 371.089 584.685 376.32L492.049 409.653C477.512 414.883 461.486 407.339 456.256 392.802V392.802C451.025 378.265 458.569 362.239 473.106 357.009L565.742 323.676Z" fill="#F0A284"/>
<ellipse cx="585.229" cy="347.202" rx="35.6622" ry="28.8708" transform="rotate(-8.44 585.229 347.202)" fill="#F0A284"/>
<path d="M565.742 323.676C580.28 318.445 596.305 325.989 601.536 340.526V340.526C606.767 355.064 599.222 371.089 584.685 376.32L492.049 409.653C477.512 414.883 461.486 407.339 456.256 392.802V392.802C451.025 378.265 458.569 362.239 473.106 357.009L565.742 323.676Z" fill="#E28F79"/>
<ellipse cx="585.229" cy="347.202" rx="35.6622" ry="28.8708" transform="rotate(-8.44 585.229 347.202)" fill="#F0A284"/>
<path d="M620.54 341.995C620.122 339.246 619.223 336.592 617.884 334.155C616.169 341.887 610.73 348.855 602.988 353.598C598.143 356.52 592.761 358.443 587.161 359.252C585.667 359.472 584.162 359.616 582.653 359.684L559.065 368.18L489.739 393.121C476.195 398.006 461.157 391.794 455.008 378.774C454.21 383.493 454.649 388.338 456.282 392.837C458.788 399.822 463.968 405.524 470.682 408.686C477.395 411.848 485.091 412.21 492.072 409.693L584.711 376.373C584.792 376.35 584.87 376.32 584.946 376.285C586.472 376.214 587.993 376.067 589.503 375.844C608.937 372.894 622.843 357.753 620.54 341.995V341.995Z" fill="#EF927F"/>
<path d="M626.569 327.877C630.858 326.768 635.234 329.347 636.342 333.636V333.636C637.45 337.925 634.872 342.301 630.583 343.409L606.369 349.667C602.08 350.775 597.704 348.197 596.596 343.908V343.908C595.487 339.619 598.066 335.243 602.355 334.135L626.569 327.877Z" fill="#F0A284"/>
<path d="M613.488 315.49C617.851 314.721 622.011 317.635 622.779 321.998V321.998C623.548 326.361 620.634 330.521 616.271 331.289L591.641 335.628C587.278 336.396 583.118 333.482 582.35 329.12V329.12C581.581 324.757 584.495 320.597 588.858 319.828L613.488 315.49Z" fill="#F0A284"/>
<path d="M578.85 309.981C582.32 307.226 587.366 307.807 590.12 311.277V311.277C592.874 314.746 592.294 319.792 588.824 322.546L569.235 338.094C565.765 340.849 560.72 340.268 557.965 336.798V336.798C555.211 333.329 555.792 328.283 559.261 325.529L578.85 309.981Z" fill="#F0A284"/>
<circle cx="564.053" cy="341.514" r="16.5424" fill="#F0A284"/>
<path d="M372.218 160.067H393.778C399.677 160.067 404.46 164.85 404.46 170.749V178.923C404.46 194.36 391.957 206.88 376.52 206.902C374.16 206.902 372.247 204.989 372.247 202.629V160.067H372.218Z" fill="#004393"/>
<rect x="328.137" y="541.826" width="206.427" height="24.0296" rx="12.0148" fill="#9A463B"/>
<path d="M414.975 548.196L406.733 571.716L392.22 613.141L321.444 813.933L282.548 924.271H252.462L280.186 813.933L330.636 613.141L341.769 571.716L348.09 548.196H414.975Z" fill="#9A463B"/>
<path d="M521.354 548.196L520.012 571.716L517.65 613.141L503.489 813.933L495.698 924.271H465.612L462.231 813.933L456.067 613.141L455.038 571.716L454.459 548.196H521.354Z" fill="#9A463B"/>
<path d="M395.973 399.971H490.386C492.67 399.971 494.522 401.823 494.522 404.107C494.522 412.099 491.347 419.764 485.695 425.416C480.044 431.067 472.379 434.242 464.387 434.242H365.838V430.106C365.838 413.463 379.33 399.971 395.973 399.971V399.971Z" fill="#9A463B"/>
<rect x="408.635" y="410.291" width="33.369" height="155.575" rx="16.6845" fill="#9A463B"/>
<path d="M321.081 319.553H384.36C409.663 319.553 430.175 340.065 430.175 365.368V497.442C430.175 522.745 409.663 543.257 384.36 543.257H275.266V365.377C275.264 353.225 280.09 341.569 288.682 332.975C297.274 324.381 308.929 319.553 321.081 319.553V319.553Z" fill="#9A463B"/>
<path d="M280.186 813.933H321.444L282.548 924.271H252.462L280.186 813.933Z" fill="#6F232D"/>
<path d="M503.489 813.933L495.698 924.271H465.612L462.231 813.933H503.489Z" fill="#6F232D"/>
<path d="M515.094 741.201L516.556 777.128L459.361 779.455L457.899 743.528L515.094 741.201Z" fill="#F0A284"/>
<path d="M515.104 741.201L515.584 753.01L458.39 755.337L457.909 743.528L515.104 741.201Z" fill="#EF927F"/>
<path d="M482.115 784.043L537.887 786.327C538.375 771.018 526.436 758.176 511.132 757.55C495.829 756.923 482.88 768.746 482.115 784.043H482.115Z" fill="white"/>
<path d="M543.62 793.02V784.474C543.611 780.769 540.723 777.709 537.024 777.487L463.74 773.136C461.325 772.989 458.958 773.849 457.2 775.511C455.442 777.172 454.45 779.488 454.459 781.907V797.744L543.62 793.02Z" fill="#004393"/>
<path d="M454.45 793.02V800.86C454.45 801.706 454.786 802.518 455.386 803.116C455.985 803.713 456.798 804.048 457.644 804.045L539.621 803.829C542.191 803.824 544.653 802.798 546.466 800.976C548.278 799.155 549.292 796.687 549.284 794.118C549.279 791.548 548.253 789.086 546.431 787.273C544.609 785.461 542.142 784.447 539.572 784.455L517.385 784.514C515.181 784.519 513.069 785.399 511.515 786.962C509.96 788.524 509.089 790.64 509.094 792.844L454.45 793.02Z" fill="#108FD4"/>
<path d="M371.521 687.071L387.391 664.255L433.909 696.61L418.039 719.426L371.521 687.071Z" fill="#EF927F"/>
<path d="M387.986 705.535L430.89 741.237C437.432 733.591 439.352 723.016 435.914 713.558C432.477 704.101 424.215 697.226 414.291 695.565C404.366 693.904 394.316 697.713 387.986 705.535H387.986Z" fill="#EFDADC"/>
<path d="M431.4 750.067L436.584 743.256C438.83 740.311 438.401 736.128 435.604 733.701L380.048 685.681C378.217 684.086 375.806 683.324 373.391 683.574C370.976 683.825 368.773 685.067 367.308 687.004L357.724 699.606L431.4 750.067Z" fill="#004393"/>
<path d="M360.556 695.853L355.656 702.301C355.179 702.923 354.969 703.709 355.074 704.486C355.179 705.262 355.589 705.964 356.214 706.437L421.6 756.231C425.858 759.466 431.932 758.642 435.173 754.388C436.733 752.348 437.418 749.772 437.078 747.226C436.738 744.681 435.4 742.375 433.36 740.815L415.72 727.36C412.066 724.585 406.855 725.295 404.078 728.948L360.556 695.853Z" fill="#013568"/>
<path d="M558.575 471.315C566.987 477.165 572.731 486.116 574.543 496.201C576.355 506.285 574.087 516.676 568.237 525.088L442.797 705.408L379.362 661.308L504.802 480.988C510.646 472.57 519.598 466.821 529.684 465.006C539.77 463.192 550.163 465.462 558.575 471.315V471.315Z" fill="#004393"/>
<path d="M534.702 541.826H431.527C417.359 541.829 403.77 536.202 393.751 526.183C383.732 516.164 378.105 502.575 378.108 488.407V475.373C378.108 471.284 379.732 467.363 382.623 464.472C385.514 461.581 389.435 459.957 393.523 459.957H534.702C557.311 459.957 575.641 478.283 575.646 500.892C575.641 523.501 557.311 541.826 534.702 541.826V541.826Z" fill="#004393"/>
<path d="M418.296 460.713C418.315 476.215 405.763 488.798 390.261 488.817L321.911 488.901C306.409 488.92 293.826 476.368 293.807 460.865L293.63 315.899C293.611 300.397 306.163 287.814 321.666 287.795L390.015 287.711C405.518 287.693 418.1 300.245 418.119 315.747L418.296 460.713Z" fill="white"/>
<path d="M375.712 382.25L343.93 382.288C307.905 382.332 278.666 353.164 278.622 317.139L278.614 310.75C278.593 288.735 296.407 270.864 318.422 270.815L400.908 270.714C422.942 270.687 440.826 288.527 440.853 310.561L440.861 316.951C440.905 352.976 411.737 382.215 375.712 382.259L375.712 382.25Z" fill="white"/>
<path d="M371.238 267.181V270.739L327.843 270.788L327.814 249.002L327.804 228.354L371.189 228.305L371.238 267.181Z" fill="#F0A284"/>
<path d="M293.759 488.407C293.768 516.63 315.726 539.979 343.896 541.719H344.474C345.366 541.719 346.267 541.787 347.179 541.787H450.363C472.73 541.816 490.966 523.864 491.288 501.499C491.641 478.626 472.462 459.918 449.589 459.918H293.769L293.759 488.407Z" fill="#108FD4"/>
<path d="M413.907 504.018L414.172 505.978L417.18 527.94L432.576 640.14L447.952 752.164L524.804 741.619L518.169 693.256L496.55 535.711L490.749 493.473C489.193 482.019 482.596 471.86 472.766 465.778C471.564 465.031 470.321 464.354 469.042 463.75C456.174 457.602 440.97 459.013 429.453 467.424C417.937 475.836 411.966 489.89 413.907 504.018V504.018Z" fill="#108FD4"/>
<path d="M371.238 267.181C370.258 267.26 369.229 267.289 368.21 267.27C352.794 267.046 338.163 260.43 327.814 249.002V228.354L371.199 228.305L371.238 267.181Z" fill="#EF927F"/>
<path d="M397.188 173.885L397.051 182.421L396.404 222.885C396.098 241.395 380.859 256.16 362.349 255.882C331.559 255.399 306.989 230.048 307.469 199.258L307.861 174.885C308.151 158.141 321.937 144.789 338.682 145.034L369.68 145.524C377.09 145.633 384.153 148.683 389.313 154.002C394.473 159.322 397.306 166.475 397.188 173.885V173.885Z" fill="#F0A284"/>
<path d="M397.188 173.885L397.051 182.421C387.29 186.002 376.96 187.785 366.563 187.684C337.163 187.684 313.3 174.581 313.104 158.362C318.838 149.876 328.472 144.862 338.712 145.034L369.709 145.524C377.114 145.64 384.17 148.694 389.323 154.013C394.477 159.332 397.306 166.48 397.188 173.885V173.885Z" fill="#EF927F"/>
<path d="M321.571 426.98V549.176C321.571 558.394 314.099 565.866 304.882 565.866C295.665 565.866 288.193 558.394 288.193 549.176V426.98C288.187 424.882 288.586 422.802 289.369 420.855C291.865 414.464 298.025 410.256 304.887 410.256C311.749 410.256 317.909 414.464 320.405 420.855C321.18 422.804 321.576 424.883 321.571 426.98V426.98Z" fill="#DB8D5C"/>
<path d="M349.58 548.196L343.386 565.866L341.338 571.716L331.783 598.99L326.824 613.141L256.049 813.933L217.152 924.271H187.066L214.8 813.933L265.251 613.141L269.053 598.99L276.374 571.716L277.952 565.866L282.695 548.196H349.58Z" fill="#DB8D5C"/>
<path d="M455.969 548.196L454.959 565.866L454.626 571.716L453.058 598.99L452.264 613.141L438.093 813.933L430.302 924.271H400.216L396.845 813.933L390.691 613.141L390.328 598.99L389.662 571.716L389.505 565.866L389.074 548.196H455.969Z" fill="#DB8D5C"/>
<rect x="262.742" y="532.291" width="206.427" height="33.565" rx="14.49" fill="#DB8D5C"/>
<rect x="289.908" y="539.269" width="152.106" height="19.6196" rx="9.51" fill="#F1A873"/>
<path d="M277.952 565.866H343.386L341.338 571.716L331.783 598.99H269.053L277.952 565.866Z" fill="#CB7748"/>
<path d="M454.959 565.866L454.626 571.716L453.058 598.99H390.328L389.662 571.716L389.505 565.866H454.959Z" fill="#CB7748"/>
<path d="M321.571 426.98V455.116H288.193V426.98C288.187 424.882 288.586 422.802 289.369 420.855H320.405C321.18 422.804 321.576 424.883 321.571 426.98Z" fill="#CB7748"/>
<path d="M256.049 813.933L217.152 924.271H187.066L214.8 813.933H256.049Z" fill="#CB7748"/>
<path d="M438.093 813.933L430.302 924.271H400.216L396.845 813.933H438.093Z" fill="#CB7748"/>
<path d="M275.58 399.971H369.993C372.277 399.971 374.129 401.823 374.129 404.107C374.129 420.75 360.637 434.242 343.994 434.242H245.396V430.106C245.396 422.106 248.578 414.433 254.24 408.78C259.902 403.128 267.579 399.958 275.58 399.971V399.971Z" fill="#DB8D5C"/>
<path d="M374.08 399.971V404.107C374.082 412.098 370.91 419.763 365.26 425.415C359.61 431.067 351.946 434.242 343.955 434.242H296.915C313.558 434.242 327.05 420.75 327.05 404.107V399.971H374.08Z" fill="#E9A06D"/>
<path d="M572.883 577.312H711.915V614.954H572.883V577.312Z" fill="#CB7748"/>
<path d="M747.842 925.957H734.004L721.892 813.933L678.478 412.153L676.008 389.27H706.76L708.515 412.153L739.267 813.933L747.842 925.957Z" fill="#DB8D5C"/>
<path d="M607.467 389.27L604.723 412.153L556.546 813.933L543.11 925.957H527.763L537.279 813.933L571.393 412.153L573.343 389.27L607.467 389.27Z" fill="#DB8D5C"/>
<path d="M573.343 389.27H607.467L604.723 412.153H571.393L573.343 389.27Z" fill="#CB7748"/>
<path d="M708.515 412.153H678.478L676.008 389.27H706.76L708.515 412.153Z" fill="#CB7748"/>
<rect x="550.215" y="377.853" width="183.613" height="24.3628" rx="9.95" fill="#DB8D5C"/>
<path d="M537.279 813.933H556.546L543.11 925.957H527.763L537.279 813.933Z" fill="#CB7748"/>
<path d="M747.842 925.957H734.004L721.892 813.933H739.267L747.842 925.957Z" fill="#CB7748"/>
<path d="M723.979 746.96C722.666 746.96 721.519 745.47 721.313 743.383L699.146 512.103C698.92 509.8 699.94 507.664 701.41 507.321C702.88 506.978 704.252 508.565 704.467 510.858L726.645 742.138C726.86 744.432 725.851 746.568 724.381 746.911C724.25 746.946 724.115 746.963 723.979 746.96V746.96Z" fill="#F1A873"/>
<path d="M555.213 746.96C556.526 746.96 557.673 745.47 557.879 743.383L580.046 512.103C580.272 509.8 579.253 507.664 577.783 507.321C576.313 506.978 574.941 508.565 574.725 510.858L552.548 742.138C552.332 744.432 553.341 746.568 554.811 746.911C554.942 746.946 555.078 746.963 555.213 746.96V746.96Z" fill="#F1A873"/>
<path d="M604.272 365.201H608.398C610.563 365.201 612.318 366.956 612.318 369.121V371.414H600.323V369.121C600.323 368.076 600.74 367.075 601.481 366.339C602.223 365.603 603.227 365.193 604.272 365.201Z" fill="#DEE4EB"/>
<path d="M592.257 365.201H596.383C598.548 365.201 600.303 366.956 600.303 369.121V371.414H588.318V369.121C588.318 368.078 588.733 367.078 589.473 366.342C590.212 365.607 591.214 365.196 592.257 365.201Z" fill="#DEE4EB"/>
<path d="M580.252 365.201H584.378C586.543 365.201 588.298 366.956 588.298 369.121V371.414H576.303V369.121C576.303 368.076 576.72 367.075 577.461 366.339C578.203 365.603 579.208 365.193 580.252 365.201Z" fill="#DEE4EB"/>
<path d="M568.237 365.201H572.363C574.528 365.201 576.283 366.956 576.283 369.121V371.414H564.288V369.121C564.288 368.076 564.705 367.075 565.446 366.339C566.188 365.603 567.193 365.193 568.237 365.201Z" fill="#DEE4EB"/>
<path d="M556.223 365.201H560.348C562.513 365.201 564.268 366.956 564.268 369.121V371.414H552.283V369.121C552.283 368.078 552.699 367.078 553.438 366.342C554.177 365.607 555.18 365.196 556.223 365.201Z" fill="#DEE4EB"/>
<path d="M544.218 365.201H548.343C550.508 365.201 552.263 366.956 552.263 369.121V371.414H540.268V369.121C540.268 368.076 540.685 367.075 541.427 366.339C542.168 365.603 543.173 365.193 544.218 365.201Z" fill="#DEE4EB"/>
<path d="M532.203 365.201H536.329C538.494 365.201 540.249 366.956 540.249 369.121V371.414H528.253V369.121C528.253 368.076 528.67 367.075 529.412 366.339C530.153 365.603 531.158 365.193 532.203 365.201Z" fill="#DEE4EB"/>
<rect x="492.689" y="366.132" width="164.101" height="11.711" rx="5.8555" fill="#004393"/>
<path d="M611.583 377.853H748.508C754.258 377.865 759.277 373.961 760.68 368.386L787.365 262.35C788.308 258.605 787.471 254.635 785.096 251.59C782.721 248.545 779.075 246.766 775.213 246.768H654.34C648.601 246.766 643.596 250.668 642.198 256.235L611.583 377.853Z" fill="#108FD4"/>
<path d="M787.346 262.36L760.68 368.386C759.278 373.954 754.27 377.856 748.528 377.853H611.593L614.533 366.093H722.715C728.458 366.093 733.468 362.194 734.877 356.626L761.552 250.6C761.877 249.32 761.996 247.997 761.905 246.68H775.194C779.076 246.674 782.742 248.467 785.12 251.536C787.498 254.604 788.32 258.602 787.346 262.36V262.36Z" fill="#004393"/>
<circle cx="708.035" cy="315.819" r="6.8502" fill="#DEE4EB"/>
<path d="M717.217 326.079C714.251 330.699 708.771 333.048 703.38 332.01C697.989 330.972 693.773 326.756 692.735 321.365C691.697 315.974 694.046 310.494 698.666 307.528C695.279 312.841 696.04 319.794 700.495 324.25C704.951 328.705 711.904 329.466 717.217 326.079V326.079Z" fill="#DEE4EB"/>
<path d="M299.198 160.067H331.44V178.932C331.44 194.385 318.913 206.911 303.461 206.911C302.328 206.911 301.241 206.461 300.44 205.66C299.638 204.859 299.188 203.772 299.188 202.639V160.067H299.198Z" fill="#004393"/>
<ellipse cx="349.521" cy="152.365" rx="53.4786" ry="29.5274" fill="#004393"/>
<path d="M395.14 152.365C395.14 164.438 377.422 174.219 355.568 174.219C353.735 174.219 351.922 174.15 350.148 174.013C369.425 172.553 384.291 163.419 384.291 152.365C384.291 141.31 369.425 132.177 350.148 130.716C351.922 130.589 353.735 130.52 355.568 130.52C377.373 130.54 395.14 140.34 395.14 152.365Z" fill="#108FD4"/>
<ellipse cx="327.814" cy="147.18" rx="25.4016" ry="14.0238" fill="#108FD4"/>
<circle cx="309.792" cy="197.67" r="14.1806" fill="#F0A284"/>
<path d="M367.491 379.087C375.633 394.707 369.57 413.97 353.95 422.111V422.111C338.33 430.253 319.067 424.191 310.926 408.57L266.344 323.04C258.203 307.42 264.265 288.157 279.885 280.016V280.016C295.505 271.874 314.768 277.936 322.91 293.556L367.491 379.087Z" fill="#DEE4EB"/>
<path d="M344.18 425.334C330.655 427.438 317.293 420.69 310.958 408.556L266.388 323.032C260.826 312.366 261.739 299.477 268.749 289.702C275.76 279.927 287.674 274.928 299.561 276.776C296.138 277.307 292.827 278.4 289.761 280.01C282.257 283.916 276.614 290.645 274.073 298.714C271.533 306.783 272.304 315.531 276.217 323.032L320.797 408.556C325.47 417.557 334.156 423.79 344.18 425.334V425.334Z" fill="white"/>
<circle cx="339.398" cy="392.269" r="36.0836" fill="#004393"/>
<path d="M429.472 350.532C444.62 347.492 459.364 357.306 462.404 372.454V372.454C465.445 387.601 455.63 402.346 440.483 405.386L343.957 424.762C328.81 427.802 314.065 417.987 311.025 402.84V402.84C307.984 387.692 317.799 372.948 332.947 369.908L429.472 350.532Z" fill="#F0A284"/>
<ellipse cx="445.296" cy="376.687" rx="35.6622" ry="28.8708" fill="#F0A284"/>
<path d="M480.949 376.275C478.881 389.015 466.504 399.158 450.824 401.01C449.09 401.219 447.346 401.324 445.6 401.324C444.088 401.325 442.577 401.246 441.073 401.089L440.788 401.157L430.988 403.117L344.278 420.522C329.13 423.551 314.393 413.735 311.35 398.59C310.994 396.821 310.811 395.023 310.801 393.219C309.621 401.261 311.992 409.418 317.297 415.575C322.602 421.732 330.32 425.282 338.447 425.304C340.307 425.301 342.161 425.114 343.984 424.746L440.514 405.371L440.788 405.312C442.296 405.467 443.81 405.542 445.326 405.538C465.024 405.538 480.988 392.621 480.988 376.677C480.959 376.52 480.959 376.422 480.949 376.275V376.275Z" fill="#FCB798"/>
<path d="M477.908 380.464C482.337 380.344 486.024 383.837 486.143 388.266V388.266C486.263 392.694 482.771 396.381 478.342 396.501L453.342 397.177C448.913 397.297 445.226 393.804 445.106 389.376V389.376C444.986 384.948 448.479 381.26 452.908 381.141L477.908 380.464Z" fill="#F0A284"/>
<path d="M491.359 365.119C495.788 364.999 499.475 368.492 499.594 372.92V372.92C499.714 377.349 496.221 381.036 491.793 381.155L466.793 381.832C462.364 381.952 458.677 378.459 458.557 374.031V374.031C458.437 369.602 461.93 365.915 466.359 365.795L491.359 365.119Z" fill="#F0A284"/>
<path d="M477.907 349.441C482.335 349.321 486.022 352.814 486.142 357.242V357.242C486.262 361.671 482.769 365.358 478.341 365.478L453.34 366.154C448.912 366.274 445.225 362.781 445.105 358.353V358.353C444.985 353.924 448.478 350.237 452.906 350.117L477.907 349.441Z" fill="#F0A284"/>
<path d="M444.45 338.925C448.287 336.71 453.193 338.024 455.408 341.861V341.861C457.623 345.697 456.308 350.603 452.472 352.818L430.813 365.323C426.976 367.538 422.07 366.223 419.855 362.387V362.387C417.64 358.55 418.955 353.644 422.791 351.429L444.45 338.925Z" fill="#F0A284"/>
<path d="M395.183 383.203C399.747 382.287 404.189 385.244 405.105 389.808V389.808C406.021 394.372 403.064 398.814 398.5 399.73L356.406 408.179C351.843 409.095 347.4 406.138 346.484 401.575V401.575C345.568 397.011 348.525 392.569 353.089 391.653L395.183 383.203Z" fill="#FCB798"/>
<circle cx="355.215" cy="197.67" r="3.3124" fill="#361647"/>
<circle cx="379.529" cy="197.67" r="3.3124" fill="#361647"/>
<path d="M312.546 205.02V192.986C312.527 192.379 312.229 191.815 311.739 191.459C311.248 191.102 310.619 190.993 310.037 191.163C306.628 192.254 304.315 195.423 304.315 199.003C304.315 202.582 306.628 205.751 310.037 206.843C310.619 207.013 311.248 206.904 311.739 206.547C312.229 206.19 312.527 205.627 312.546 205.02V205.02Z" fill="#EF927F"/>
<circle cx="311.918" cy="199.003" r="5.7428" fill="#FCF4E6"/>
<path d="M312.018 202.989C311.203 201.987 311.354 200.515 312.356 199.701V199.701C313.357 198.886 314.829 199.037 315.644 200.039L322.367 208.302C323.181 209.303 323.03 210.776 322.029 211.59V211.59C321.027 212.405 319.555 212.253 318.74 211.252L312.018 202.989Z" fill="#FCF4E6"/>
<path d="M319.543 209.195L314.937 203.53L314.545 203.05C314.13 203.166 313.701 203.222 313.271 203.217C313.114 203.227 312.957 203.227 312.8 203.217C310.077 202.978 307.988 200.698 307.989 197.964C307.972 196.853 308.316 195.767 308.969 194.867C307.687 195.859 306.94 197.392 306.95 199.013C306.95 201.93 309.315 204.295 312.232 204.295C312.659 204.295 313.084 204.239 313.496 204.128L318.504 210.273C318.976 210.851 319.714 211.143 320.454 211.043C321.194 210.943 321.828 210.466 322.13 209.783C321.235 210.204 320.168 209.961 319.543 209.195V209.195Z" fill="white"/>
<path d="M374.844 211.88C374.84 214.129 373.941 216.283 372.345 217.868C372.149 218.064 371.943 218.24 371.738 218.417C370.224 219.684 368.312 220.377 366.338 220.377H365.995C361.574 220.354 357.909 216.945 357.567 212.537C357.567 212.301 357.567 212.066 357.567 211.831C357.571 211.396 357.747 210.98 358.057 210.675C358.361 210.364 358.779 210.19 359.213 210.194H373.237C373.675 210.202 374.091 210.385 374.393 210.701C374.695 211.018 374.857 211.443 374.844 211.88V211.88Z" fill="#962F4A"/>
<path d="M366.171 219.063C366.174 219.501 366.131 219.938 366.044 220.367H365.995C361.572 220.349 357.904 216.937 357.567 212.527C358.178 212.349 358.812 212.259 359.448 212.262C361.244 212.267 362.962 212.988 364.224 214.265C365.486 215.541 366.187 217.268 366.171 219.063V219.063Z" fill="#E1617F"/>
<path d="M372.894 210.263C372.825 211.919 370.258 213.252 367.102 213.203C363.947 213.154 361.389 211.851 361.32 210.185L372.894 210.263Z" fill="white"/>
</svg>
