<svg id="Layer_1" data-name="Layer 1" xmlns="http://www.w3.org/2000/svg" viewBox="0 0 2546.56 932.1">
  <defs>
    <style>
      .cls-1, .cls-4 {
        fill: #1e5ee5;
      }

      .cls-2 {
        fill: none;
      }

      .cls-10, .cls-11, .cls-12, .cls-3, .cls-8, .cls-9 {
        fill: #041844;
      }

      .cls-4 {
        font-size: 48px;
        font-family: Montserrat-Black, Montserrat;
      }

      .cls-5 {
        letter-spacing: -0.05em;
      }

      .cls-6 {
        letter-spacing: -0.03em;
      }

      .cls-7 {
        letter-spacing: -0.01em;
      }

      .cls-8 {
        letter-spacing: -0.01em;
      }

      .cls-9 {
        letter-spacing: 0em;
      }

      .cls-10 {
        letter-spacing: -0.04em;
      }

      .cls-11 {
        letter-spacing: -0.04em;
      }

      .cls-12 {
        letter-spacing: -0.02em;
      }
    </style>
  </defs>
  <title>Logo-50</title>
  <path class="cls-1" d="M1831.07,97H1445c-138.07,0-250,111.92-250,250V733c0,138.08,111.93,250,250,250h386.07c138.07,0,250-111.92,250-250V347C2081.07,208.89,1969.14,97,1831.07,97Zm49.79,351.72c-13.09,171.6-164.71,202.61-164.71,202.61s-64.73,13-131.47,8.1a7,7,0,0,0-7.4,5.84l-24.18,147a7,7,0,0,1-6.92,5.87H1401.45a7,7,0,0,1-6.95-7.9c5.56-43.4,43.28-256.24,260.72-407.14l-14.95,52.76,60.61-79.71L1604,364.42l46.22,25.35c-32.48.53-96.64,8.24-177,51.78a7,7,0,0,1-10.27-7.36l28.88-166.44a7,7,0,0,1,6.9-5.82h214.59a180.74,180.74,0,0,1,89.42,23.16C1844.29,308.7,1888,355.75,1880.86,448.69Z" transform="translate(-252.1 -96.97)"/>
  <path class="cls-1" d="M816.53,461.62c-13.09,171.6-164.71,202.61-164.71,202.61s-64.74,13-131.47,8.1a7,7,0,0,0-7.4,5.84l-24.18,147a7,7,0,0,1-6.92,5.87H337.12a7,7,0,0,1-6.95-7.9c5.55-43.4,43.28-256.24,260.72-407.15l-15,52.76L636.55,389l-96.87-11.66,46.23,25.35c-32.49.54-96.65,8.24-177,51.78a7,7,0,0,1-10.27-7.36l28.88-166.44a7,7,0,0,1,6.91-5.82H649A180.8,180.8,0,0,1,738.45,298C780,321.63,823.63,368.68,816.53,461.62Z" transform="translate(-252.1 -96.97)"/>
  <line class="cls-2" x1="244.08" y1="373.08" x2="240.47" y2="363.46"/>
  <path class="cls-3" d="M632.25,390.75" transform="translate(-252.1 -96.97)"/>
  <text class="cls-4" transform="translate(0 871.72)"><tspan class="cls-5">PA</tspan><tspan class="cls-6" x="70.03" y="0">Y</tspan><tspan class="cls-7" x="102.67" y="0">W</tspan><tspan x="159.84" y="0">ITH</tspan><tspan class="cls-8" x="246.62" y="0">P</tspan><tspan class="cls-9" x="281.81" y="0">R</tspan><tspan class="cls-10" x="317.56" y="0">A</tspan><tspan class="cls-11" x="354.09" y="0">Y</tspan><tspan class="cls-12" x="386.25" y="0">.</tspan><tspan class="cls-3" x="399.89" y="0">ORG</tspan></text>
  <path class="cls-1" d="M2784.46,543.75h-21.92a14.2,14.2,0,0,0-14.2,14.2v21.92a14.2,14.2,0,0,0,14.2,14.2h21.92a14.2,14.2,0,0,0,14.2-14.2V558A14.2,14.2,0,0,0,2784.46,543.75Zm2.83,20a12.4,12.4,0,0,1-9.35,11.51,31.61,31.61,0,0,1-7.47.46.4.4,0,0,0-.42.33l-1.37,8.35a.4.4,0,0,1-.39.33h-8.22a.4.4,0,0,1-.39-.45,34.58,34.58,0,0,1,14.81-23.12l-.85,3,3.44-4.53-5.5-.66,2.62,1.44a22.16,22.16,0,0,0-10.05,2.94.4.4,0,0,1-.58-.42l1.64-9.45a.4.4,0,0,1,.39-.33h12.19a10.26,10.26,0,0,1,5.08,1.32C2785.21,555.78,2787.69,558.45,2787.29,563.73Z" transform="translate(-252.1 -96.97)"/>
</svg>
