<svg width="200" height="45" viewBox="0 0 200 45" fill="none" xmlns="http://www.w3.org/2000/svg">
<rect width="200" height="44.4444" fill="white"/>
<path d="M10.9976 32.18C10.2776 32.18 9.70762 31.97 9.28762 31.55C8.86762 31.13 8.65762 30.56 8.65762 29.84V13.04C8.65762 12.34 8.84762 11.8 9.22762 11.42C9.60762 11.04 10.1476 10.85 10.8476 10.85H18.3776C20.6776 10.85 22.4676 11.43 23.7476 12.59C25.0276 13.75 25.6676 15.37 25.6676 17.45C25.6676 19.53 25.0276 21.15 23.7476 22.31C22.4676 23.47 20.6776 24.05 18.3776 24.05H13.3376V29.84C13.3376 30.56 13.1276 31.13 12.7076 31.55C12.2876 31.97 11.7176 32.18 10.9976 32.18ZM17.7776 20.51C20.1176 20.51 21.2876 19.5 21.2876 17.48C21.2876 15.44 20.1176 14.42 17.7776 14.42H13.3376V20.51H17.7776ZM34.5272 16.91C36.6872 16.91 38.2872 17.44 39.3272 18.5C40.3672 19.54 40.8872 21.14 40.8872 23.3V30.08C40.8872 30.74 40.6972 31.26 40.3172 31.64C39.9372 32 39.4072 32.18 38.7272 32.18C38.0872 32.18 37.5672 31.99 37.1672 31.61C36.7872 31.21 36.5972 30.7 36.5972 30.08V29.87C36.2972 30.61 35.7972 31.19 35.0972 31.61C34.3972 32.03 33.5772 32.24 32.6372 32.24C31.6372 32.24 30.7272 32.04 29.9072 31.64C29.1072 31.24 28.4672 30.68 27.9872 29.96C27.5272 29.24 27.2972 28.44 27.2972 27.56C27.2972 26.48 27.5672 25.63 28.1072 25.01C28.6672 24.39 29.5572 23.94 30.7772 23.66C31.9972 23.38 33.6672 23.24 35.7872 23.24H36.5672V22.7C36.5672 21.86 36.3772 21.25 35.9972 20.87C35.6372 20.49 35.0272 20.3 34.1672 20.3C33.3072 20.3 32.0672 20.6 30.4472 21.2C29.9872 21.42 29.5972 21.53 29.2772 21.53C28.8372 21.53 28.4872 21.38 28.2272 21.08C27.9672 20.76 27.8372 20.35 27.8372 19.85C27.8372 19.45 27.9272 19.12 28.1072 18.86C28.2872 18.6 28.5772 18.36 28.9772 18.14C29.6772 17.76 30.5272 17.46 31.5272 17.24C32.5472 17.02 33.5472 16.91 34.5272 16.91ZM33.6272 29.12C34.5072 29.12 35.2172 28.83 35.7572 28.25C36.2972 27.65 36.5672 26.88 36.5672 25.94V25.43H36.0572C34.4372 25.43 33.2972 25.56 32.6372 25.82C31.9972 26.08 31.6772 26.55 31.6772 27.23C31.6772 27.79 31.8572 28.25 32.2172 28.61C32.5972 28.95 33.0672 29.12 33.6272 29.12ZM54.3242 18.26C54.5042 17.84 54.7542 17.53 55.0742 17.33C55.4142 17.13 55.7742 17.03 56.1542 17.03C56.7342 17.03 57.2442 17.22 57.6842 17.6C58.1242 17.96 58.3442 18.4 58.3442 18.92C58.3442 19.2 58.2742 19.48 58.1342 19.76L50.0642 36.32C49.8642 36.74 49.5942 37.05 49.2542 37.25C48.9142 37.47 48.5542 37.58 48.1742 37.58C47.6142 37.58 47.1242 37.4 46.7042 37.04C46.2842 36.68 46.0742 36.24 46.0742 35.72C46.0742 35.4 46.1442 35.1 46.2842 34.82L48.2642 30.71L42.9242 19.76C42.8042 19.48 42.7442 19.21 42.7442 18.95C42.7442 18.41 42.9742 17.95 43.4342 17.57C43.9142 17.19 44.4542 17 45.0542 17C45.4542 17 45.8242 17.11 46.1642 17.33C46.5042 17.53 46.7742 17.84 46.9742 18.26L50.6942 26.36L54.3242 18.26ZM86.8796 12.11C87.0596 11.63 87.3296 11.27 87.6896 11.03C88.0696 10.77 88.4896 10.64 88.9496 10.64C89.5296 10.64 90.0196 10.82 90.4196 11.18C90.8396 11.54 91.0496 12.03 91.0496 12.65C91.0496 12.95 90.9896 13.28 90.8696 13.64L84.6296 30.71C84.4496 31.19 84.1296 31.57 83.6696 31.85C83.2296 32.11 82.7396 32.24 82.1996 32.24C81.6596 32.24 81.1696 32.11 80.7296 31.85C80.2896 31.57 79.9796 31.19 79.7996 30.71L75.3296 18.08L70.7396 30.71C70.5596 31.19 70.2496 31.57 69.8096 31.85C69.3696 32.11 68.8796 32.24 68.3396 32.24C67.8196 32.24 67.3296 32.11 66.8696 31.85C66.4296 31.57 66.1196 31.19 65.9396 30.71L59.6996 13.64C59.5796 13.3 59.5196 12.98 59.5196 12.68C59.5196 12.06 59.7396 11.57 60.1796 11.21C60.6196 10.83 61.1396 10.64 61.7396 10.64C62.2196 10.64 62.6496 10.77 63.0296 11.03C63.4296 11.27 63.7196 11.63 63.8996 12.11L68.5196 25.4L73.3196 12.17C73.4996 11.69 73.7796 11.32 74.1596 11.06C74.5596 10.8 74.9796 10.67 75.4196 10.67C75.8796 10.67 76.2996 10.8 76.6796 11.06C77.0596 11.32 77.3396 11.7 77.5196 12.2L82.1096 25.64L86.8796 12.11ZM109.74 28.88C110.34 28.92 110.78 29.07 111.06 29.33C111.34 29.59 111.48 29.97 111.48 30.47C111.48 31.05 111.25 31.49 110.79 31.79C110.33 32.09 109.67 32.21 108.81 32.15L107.97 32.09C104.47 31.81 102.72 29.98 102.72 26.6V20.66H101.52C100.86 20.66 100.36 20.52 100.02 20.24C99.6796 19.94 99.5096 19.52 99.5096 18.98C99.5096 18.42 99.6796 18 100.02 17.72C100.36 17.42 100.86 17.27 101.52 17.27H102.72V14.93C102.72 14.27 102.92 13.75 103.32 13.37C103.74 12.99 104.3 12.8 105 12.8C105.7 12.8 106.25 12.99 106.65 13.37C107.05 13.75 107.25 14.27 107.25 14.93V17.27H109.35C110.71 17.27 111.39 17.84 111.39 18.98C111.39 19.52 111.22 19.94 110.88 20.24C110.54 20.52 110.03 20.66 109.35 20.66H107.25V26.93C107.25 27.53 107.39 27.99 107.67 28.31C107.95 28.61 108.36 28.78 108.9 28.82L109.74 28.88ZM122.481 16.91C125.901 16.91 127.611 18.98 127.611 23.12V30.05C127.611 30.71 127.401 31.23 126.981 31.61C126.581 31.99 126.031 32.18 125.331 32.18C124.631 32.18 124.081 31.99 123.681 31.61C123.281 31.23 123.081 30.71 123.081 30.05V23.06C123.081 22.18 122.891 21.53 122.511 21.11C122.151 20.67 121.581 20.45 120.801 20.45C119.861 20.45 119.101 20.75 118.521 21.35C117.961 21.95 117.681 22.75 117.681 23.75V30.05C117.681 30.71 117.481 31.23 117.081 31.61C116.681 31.99 116.131 32.18 115.431 32.18C114.731 32.18 114.171 31.99 113.751 31.61C113.351 31.23 113.151 30.71 113.151 30.05V12.77C113.151 12.15 113.361 11.65 113.781 11.27C114.221 10.89 114.791 10.7 115.491 10.7C116.151 10.7 116.681 10.88 117.081 11.24C117.481 11.6 117.681 12.08 117.681 12.68V19.22C118.201 18.46 118.871 17.89 119.691 17.51C120.511 17.11 121.441 16.91 122.481 16.91ZM133.693 32.18C132.973 32.18 132.403 31.97 131.983 31.55C131.563 31.13 131.353 30.56 131.353 29.84V13.04C131.353 12.34 131.543 11.8 131.923 11.42C132.303 11.04 132.843 10.85 133.543 10.85H141.073C143.373 10.85 145.163 11.43 146.443 12.59C147.723 13.75 148.363 15.37 148.363 17.45C148.363 19.53 147.723 21.15 146.443 22.31C145.163 23.47 143.373 24.05 141.073 24.05H136.033V29.84C136.033 30.56 135.823 31.13 135.403 31.55C134.983 31.97 134.413 32.18 133.693 32.18ZM140.473 20.51C142.813 20.51 143.983 19.5 143.983 17.48C143.983 15.44 142.813 14.42 140.473 14.42H136.033V20.51H140.473ZM159.529 16.97C160.129 16.93 160.599 17.07 160.939 17.39C161.299 17.69 161.479 18.15 161.479 18.77C161.479 19.43 161.319 19.92 160.999 20.24C160.679 20.56 160.109 20.76 159.289 20.84L158.389 20.93C157.289 21.05 156.489 21.41 155.989 22.01C155.509 22.61 155.269 23.38 155.269 24.32V30.05C155.269 30.75 155.049 31.28 154.609 31.64C154.189 32 153.659 32.18 153.019 32.18C152.359 32.18 151.809 32 151.369 31.64C150.949 31.28 150.739 30.75 150.739 30.05V19.04C150.739 18.38 150.959 17.87 151.399 17.51C151.839 17.15 152.369 16.97 152.989 16.97C153.589 16.97 154.089 17.15 154.489 17.51C154.889 17.85 155.089 18.33 155.089 18.95V19.76C155.449 18.9 155.989 18.24 156.709 17.78C157.449 17.32 158.249 17.06 159.109 17L159.529 16.97ZM169.41 16.91C171.57 16.91 173.17 17.44 174.21 18.5C175.25 19.54 175.77 21.14 175.77 23.3V30.08C175.77 30.74 175.58 31.26 175.2 31.64C174.82 32 174.29 32.18 173.61 32.18C172.97 32.18 172.45 31.99 172.05 31.61C171.67 31.21 171.48 30.7 171.48 30.08V29.87C171.18 30.61 170.68 31.19 169.98 31.61C169.28 32.03 168.46 32.24 167.52 32.24C166.52 32.24 165.61 32.04 164.79 31.64C163.99 31.24 163.35 30.68 162.87 29.96C162.41 29.24 162.18 28.44 162.18 27.56C162.18 26.48 162.45 25.63 162.99 25.01C163.55 24.39 164.44 23.94 165.66 23.66C166.88 23.38 168.55 23.24 170.67 23.24H171.45V22.7C171.45 21.86 171.26 21.25 170.88 20.87C170.52 20.49 169.91 20.3 169.05 20.3C168.19 20.3 166.95 20.6 165.33 21.2C164.87 21.42 164.48 21.53 164.16 21.53C163.72 21.53 163.37 21.38 163.11 21.08C162.85 20.76 162.72 20.35 162.72 19.85C162.72 19.45 162.81 19.12 162.99 18.86C163.17 18.6 163.46 18.36 163.86 18.14C164.56 17.76 165.41 17.46 166.41 17.24C167.43 17.02 168.43 16.91 169.41 16.91ZM168.51 29.12C169.39 29.12 170.1 28.83 170.64 28.25C171.18 27.65 171.45 26.88 171.45 25.94V25.43H170.94C169.32 25.43 168.18 25.56 167.52 25.82C166.88 26.08 166.56 26.55 166.56 27.23C166.56 27.79 166.74 28.25 167.1 28.61C167.48 28.95 167.95 29.12 168.51 29.12ZM189.207 18.26C189.387 17.84 189.637 17.53 189.957 17.33C190.297 17.13 190.657 17.03 191.037 17.03C191.617 17.03 192.127 17.22 192.567 17.6C193.007 17.96 193.227 18.4 193.227 18.92C193.227 19.2 193.157 19.48 193.017 19.76L184.947 36.32C184.747 36.74 184.477 37.05 184.137 37.25C183.797 37.47 183.437 37.58 183.057 37.58C182.497 37.58 182.007 37.4 181.587 37.04C181.167 36.68 180.957 36.24 180.957 35.72C180.957 35.4 181.027 35.1 181.167 34.82L183.147 30.71L177.807 19.76C177.687 19.48 177.627 19.21 177.627 18.95C177.627 18.41 177.857 17.95 178.317 17.57C178.797 17.19 179.337 17 179.937 17C180.337 17 180.707 17.11 181.047 17.33C181.387 17.53 181.657 17.84 181.857 18.26L185.577 26.36L189.207 18.26Z" fill="#041844"/>
<path d="M95.9166 25.46C95.5566 25.46 95.2466 25.34 94.9866 25.1C94.7466 24.86 94.5966 24.51 94.5366 24.05L93.2166 13.55C93.1966 13.45 93.1866 13.31 93.1866 13.13C93.1866 12.39 93.4466 11.8 93.9666 11.36C94.4866 10.92 95.1366 10.7 95.9166 10.7C96.6966 10.7 97.3466 10.92 97.8666 11.36C98.3866 11.8 98.6466 12.4 98.6466 13.16C98.6466 13.34 98.6366 13.48 98.6166 13.58L97.2666 24.05C97.2266 24.51 97.0766 24.86 96.8166 25.1C96.5766 25.34 96.2766 25.46 95.9166 25.46ZM95.9166 32.18C95.1766 32.18 94.5666 31.94 94.0866 31.46C93.6066 30.96 93.3666 30.34 93.3666 29.6C93.3666 28.86 93.6066 28.25 94.0866 27.77C94.5666 27.27 95.1766 27.02 95.9166 27.02C96.6566 27.02 97.2666 27.27 97.7466 27.77C98.2266 28.25 98.4666 28.86 98.4666 29.6C98.4666 30.34 98.2266 30.96 97.7466 31.46C97.2666 31.94 96.6566 32.18 95.9166 32.18Z" fill="#1E5EE5"/>
</svg>
