<svg width="500" height="112" viewBox="0 0 500 112" fill="none" xmlns="http://www.w3.org/2000/svg">
<rect width="500" height="111.111" fill="white"/>
<path d="M27.994 80.45C26.194 80.45 24.769 79.925 23.719 78.875C22.669 77.825 22.144 76.4 22.144 74.6V32.6C22.144 30.85 22.619 29.5 23.569 28.55C24.519 27.6 25.869 27.125 27.619 27.125H46.444C52.194 27.125 56.669 28.575 59.869 31.475C63.069 34.375 64.669 38.425 64.669 43.625C64.669 48.825 63.069 52.875 59.869 55.775C56.669 58.675 52.194 60.125 46.444 60.125H33.844V74.6C33.844 76.4 33.319 77.825 32.269 78.875C31.219 79.925 29.794 80.45 27.994 80.45ZM44.944 51.275C50.794 51.275 53.719 48.75 53.719 43.7C53.719 38.6 50.794 36.05 44.944 36.05H33.844V51.275H44.944ZM86.8181 42.275C92.2181 42.275 96.2181 43.6 98.8181 46.25C101.418 48.85 102.718 52.85 102.718 58.25V75.2C102.718 76.85 102.243 78.15 101.293 79.1C100.343 80 99.0181 80.45 97.3181 80.45C95.7181 80.45 94.4181 79.975 93.4181 79.025C92.4681 78.025 91.9931 76.75 91.9931 75.2V74.675C91.2431 76.525 89.9931 77.975 88.2431 79.025C86.4931 80.075 84.4431 80.6 82.0931 80.6C79.5931 80.6 77.3181 80.1 75.2681 79.1C73.2681 78.1 71.6681 76.7 70.4681 74.9C69.3181 73.1 68.7431 71.1 68.7431 68.9C68.7431 66.2 69.4181 64.075 70.7681 62.525C72.1681 60.975 74.3931 59.85 77.4431 59.15C80.4931 58.45 84.6681 58.1 89.9681 58.1H91.9181V56.75C91.9181 54.65 91.4431 53.125 90.4931 52.175C89.5931 51.225 88.0681 50.75 85.9181 50.75C83.7681 50.75 80.6681 51.5 76.6181 53C75.4681 53.55 74.4931 53.825 73.6931 53.825C72.5931 53.825 71.7181 53.45 71.0681 52.7C70.4181 51.9 70.0931 50.875 70.0931 49.625C70.0931 48.625 70.3181 47.8 70.7681 47.15C71.2181 46.5 71.9431 45.9 72.9431 45.35C74.6931 44.4 76.8181 43.65 79.3181 43.1C81.8681 42.55 84.3681 42.275 86.8181 42.275ZM84.5681 72.8C86.7681 72.8 88.5431 72.075 89.8931 70.625C91.2431 69.125 91.9181 67.2 91.9181 64.85V63.575H90.6431C86.5931 63.575 83.7431 63.9 82.0931 64.55C80.4931 65.2 79.6931 66.375 79.6931 68.075C79.6931 69.475 80.1431 70.625 81.0431 71.525C81.9931 72.375 83.1681 72.8 84.5681 72.8ZM136.31 45.65C136.76 44.6 137.385 43.825 138.185 43.325C139.035 42.825 139.935 42.575 140.885 42.575C142.335 42.575 143.61 43.05 144.71 44C145.81 44.9 146.36 46 146.36 47.3C146.36 48 146.185 48.7 145.835 49.4L125.66 90.8C125.16 91.85 124.485 92.625 123.635 93.125C122.785 93.675 121.885 93.95 120.935 93.95C119.535 93.95 118.31 93.5 117.26 92.6C116.21 91.7 115.685 90.6 115.685 89.3C115.685 88.5 115.86 87.75 116.21 87.05L121.16 76.775L107.81 49.4C107.51 48.7 107.36 48.025 107.36 47.375C107.36 46.025 107.935 44.875 109.085 43.925C110.285 42.975 111.635 42.5 113.135 42.5C114.135 42.5 115.06 42.775 115.91 43.325C116.76 43.825 117.435 44.6 117.935 45.65L127.235 65.9L136.31 45.65ZM217.699 30.275C218.149 29.075 218.824 28.175 219.724 27.575C220.674 26.925 221.724 26.6 222.874 26.6C224.324 26.6 225.549 27.05 226.549 27.95C227.599 28.85 228.124 30.075 228.124 31.625C228.124 32.375 227.974 33.2 227.674 34.1L212.074 76.775C211.624 77.975 210.824 78.925 209.674 79.625C208.574 80.275 207.349 80.6 205.999 80.6C204.649 80.6 203.424 80.275 202.324 79.625C201.224 78.925 200.449 77.975 199.999 76.775L188.824 45.2L177.349 76.775C176.899 77.975 176.124 78.925 175.024 79.625C173.924 80.275 172.699 80.6 171.349 80.6C170.049 80.6 168.824 80.275 167.674 79.625C166.574 78.925 165.799 77.975 165.349 76.775L149.749 34.1C149.449 33.25 149.299 32.45 149.299 31.7C149.299 30.15 149.849 28.925 150.949 28.025C152.049 27.075 153.349 26.6 154.849 26.6C156.049 26.6 157.124 26.925 158.074 27.575C159.074 28.175 159.799 29.075 160.249 30.275L171.799 63.5L183.799 30.425C184.249 29.225 184.949 28.3 185.899 27.65C186.899 27 187.949 26.675 189.049 26.675C190.199 26.675 191.249 27 192.199 27.65C193.149 28.3 193.849 29.25 194.299 30.5L205.774 64.1L217.699 30.275ZM274.849 72.2C276.349 72.3 277.449 72.675 278.149 73.325C278.849 73.975 279.199 74.925 279.199 76.175C279.199 77.625 278.624 78.725 277.474 79.475C276.324 80.225 274.674 80.525 272.524 80.375L270.424 80.225C261.674 79.525 257.299 74.95 257.299 66.5V51.65H254.299C252.649 51.65 251.399 51.3 250.549 50.6C249.699 49.85 249.274 48.8 249.274 47.45C249.274 46.05 249.699 45 250.549 44.3C251.399 43.55 252.649 43.175 254.299 43.175H257.299V37.325C257.299 35.675 257.799 34.375 258.799 33.425C259.849 32.475 261.249 32 262.999 32C264.749 32 266.124 32.475 267.124 33.425C268.124 34.375 268.624 35.675 268.624 37.325V43.175H273.874C277.274 43.175 278.974 44.6 278.974 47.45C278.974 48.8 278.549 49.85 277.699 50.6C276.849 51.3 275.574 51.65 273.874 51.65H268.624V67.325C268.624 68.825 268.974 69.975 269.674 70.775C270.374 71.525 271.399 71.95 272.749 72.05L274.849 72.2ZM306.703 42.275C315.253 42.275 319.528 47.45 319.528 57.8V75.125C319.528 76.775 319.003 78.075 317.953 79.025C316.953 79.975 315.578 80.45 313.828 80.45C312.078 80.45 310.703 79.975 309.703 79.025C308.703 78.075 308.203 76.775 308.203 75.125V57.65C308.203 55.45 307.728 53.825 306.778 52.775C305.878 51.675 304.453 51.125 302.503 51.125C300.153 51.125 298.253 51.875 296.803 53.375C295.403 54.875 294.703 56.875 294.703 59.375V75.125C294.703 76.775 294.203 78.075 293.203 79.025C292.203 79.975 290.828 80.45 289.078 80.45C287.328 80.45 285.928 79.975 284.878 79.025C283.878 78.075 283.378 76.775 283.378 75.125V31.925C283.378 30.375 283.903 29.125 284.953 28.175C286.053 27.225 287.478 26.75 289.228 26.75C290.878 26.75 292.203 27.2 293.203 28.1C294.203 29 294.703 30.2 294.703 31.7V48.05C296.003 46.15 297.678 44.725 299.728 43.775C301.778 42.775 304.103 42.275 306.703 42.275ZM334.732 80.45C332.932 80.45 331.507 79.925 330.457 78.875C329.407 77.825 328.882 76.4 328.882 74.6V32.6C328.882 30.85 329.357 29.5 330.307 28.55C331.257 27.6 332.607 27.125 334.357 27.125H353.182C358.932 27.125 363.407 28.575 366.607 31.475C369.807 34.375 371.407 38.425 371.407 43.625C371.407 48.825 369.807 52.875 366.607 55.775C363.407 58.675 358.932 60.125 353.182 60.125H340.582V74.6C340.582 76.4 340.057 77.825 339.007 78.875C337.957 79.925 336.532 80.45 334.732 80.45ZM351.682 51.275C357.532 51.275 360.457 48.75 360.457 43.7C360.457 38.6 357.532 36.05 351.682 36.05H340.582V51.275H351.682ZM399.323 42.425C400.823 42.325 401.998 42.675 402.848 43.475C403.748 44.225 404.198 45.375 404.198 46.925C404.198 48.575 403.798 49.8 402.998 50.6C402.198 51.4 400.773 51.9 398.723 52.1L396.473 52.325C393.723 52.625 391.723 53.525 390.473 55.025C389.273 56.525 388.673 58.45 388.673 60.8V75.125C388.673 76.875 388.123 78.2 387.023 79.1C385.973 80 384.648 80.45 383.048 80.45C381.398 80.45 380.023 80 378.923 79.1C377.873 78.2 377.348 76.875 377.348 75.125V47.6C377.348 45.95 377.898 44.675 378.998 43.775C380.098 42.875 381.423 42.425 382.973 42.425C384.473 42.425 385.723 42.875 386.723 43.775C387.723 44.625 388.223 45.825 388.223 47.375V49.4C389.123 47.25 390.473 45.6 392.273 44.45C394.123 43.3 396.123 42.65 398.273 42.5L399.323 42.425ZM424.025 42.275C429.425 42.275 433.425 43.6 436.025 46.25C438.625 48.85 439.925 52.85 439.925 58.25V75.2C439.925 76.85 439.45 78.15 438.5 79.1C437.55 80 436.225 80.45 434.525 80.45C432.925 80.45 431.625 79.975 430.625 79.025C429.675 78.025 429.2 76.75 429.2 75.2V74.675C428.45 76.525 427.2 77.975 425.45 79.025C423.7 80.075 421.65 80.6 419.3 80.6C416.8 80.6 414.525 80.1 412.475 79.1C410.475 78.1 408.875 76.7 407.675 74.9C406.525 73.1 405.95 71.1 405.95 68.9C405.95 66.2 406.625 64.075 407.975 62.525C409.375 60.975 411.6 59.85 414.65 59.15C417.7 58.45 421.875 58.1 427.175 58.1H429.125V56.75C429.125 54.65 428.65 53.125 427.7 52.175C426.8 51.225 425.275 50.75 423.125 50.75C420.975 50.75 417.875 51.5 413.825 53C412.675 53.55 411.7 53.825 410.9 53.825C409.8 53.825 408.925 53.45 408.275 52.7C407.625 51.9 407.3 50.875 407.3 49.625C407.3 48.625 407.525 47.8 407.975 47.15C408.425 46.5 409.15 45.9 410.15 45.35C411.9 44.4 414.025 43.65 416.525 43.1C419.075 42.55 421.575 42.275 424.025 42.275ZM421.775 72.8C423.975 72.8 425.75 72.075 427.1 70.625C428.45 69.125 429.125 67.2 429.125 64.85V63.575H427.85C423.8 63.575 420.95 63.9 419.3 64.55C417.7 65.2 416.9 66.375 416.9 68.075C416.9 69.475 417.35 70.625 418.25 71.525C419.2 72.375 420.375 72.8 421.775 72.8ZM473.517 45.65C473.967 44.6 474.592 43.825 475.392 43.325C476.242 42.825 477.142 42.575 478.092 42.575C479.542 42.575 480.817 43.05 481.917 44C483.017 44.9 483.567 46 483.567 47.3C483.567 48 483.392 48.7 483.042 49.4L462.867 90.8C462.367 91.85 461.692 92.625 460.842 93.125C459.992 93.675 459.092 93.95 458.142 93.95C456.742 93.95 455.517 93.5 454.467 92.6C453.417 91.7 452.892 90.6 452.892 89.3C452.892 88.5 453.067 87.75 453.417 87.05L458.367 76.775L445.017 49.4C444.717 48.7 444.567 48.025 444.567 47.375C444.567 46.025 445.142 44.875 446.292 43.925C447.492 42.975 448.842 42.5 450.342 42.5C451.342 42.5 452.267 42.775 453.117 43.325C453.967 43.825 454.642 44.6 455.142 45.65L464.442 65.9L473.517 45.65Z" fill="#041844"/>
<path d="M240.292 63.65C239.392 63.65 238.617 63.35 237.967 62.75C237.367 62.15 236.992 61.275 236.842 60.125L233.542 33.875C233.492 33.625 233.467 33.275 233.467 32.825C233.467 30.975 234.117 29.5 235.417 28.4C236.717 27.3 238.342 26.75 240.292 26.75C242.242 26.75 243.867 27.3 245.167 28.4C246.467 29.5 247.117 31 247.117 32.9C247.117 33.35 247.092 33.7 247.042 33.95L243.667 60.125C243.567 61.275 243.192 62.15 242.542 62.75C241.942 63.35 241.192 63.65 240.292 63.65ZM240.292 80.45C238.442 80.45 236.917 79.85 235.717 78.65C234.517 77.4 233.917 75.85 233.917 74C233.917 72.15 234.517 70.625 235.717 69.425C236.917 68.175 238.442 67.55 240.292 67.55C242.142 67.55 243.667 68.175 244.867 69.425C246.067 70.625 246.667 72.15 246.667 74C246.667 75.85 246.067 77.4 244.867 78.65C243.667 79.85 242.142 80.45 240.292 80.45Z" fill="#1E5EE5"/>
</svg>
